<?xml version="1.0" standalone="no"?>
<!DOCTYPE svg PUBLIC "-//W3C//DTD SVG 1.1//EN" "http://www.w3.org/Graphics/SVG/1.1/DTD/svg11.dtd" >
<svg xmlns="http://www.w3.org/2000/svg">
<metadata></metadata>
<defs>
<font id="caflisch_script_proregular" horiz-adv-x="763" >
<font-face units-per-em="2048" ascent="1393" descent="-655" />
<missing-glyph horiz-adv-x="405" />
<glyph horiz-adv-x="2048" />
<glyph horiz-adv-x="2048" />
<glyph unicode="&#xd;" horiz-adv-x="2048" />
<glyph unicode=" "  horiz-adv-x="405" />
<glyph unicode="&#x09;" horiz-adv-x="405" />
<glyph unicode="&#xa0;" horiz-adv-x="405" />
<glyph unicode="!" horiz-adv-x="356" d="M481 928h2q26 0 44 -27.5t28 -62.5q9 -47 -20 -76q-20 -17 -32 -35t-34 -65q-60 -125 -131 -322q-20 -53 -55 -53q-37 0 -9 121q12 55 148 469q17 51 59 51zM225 152h2q33 0 53.5 -36t20.5 -67q0 -35 -27 -59.5t-61 -24.5t-54 30.5t-20 61.5t28.5 63t57.5 32z" />
<glyph unicode="&#x22;" horiz-adv-x="442" d="M442 1065h2q16 0 37 -14q41 -29 37 -54q-8 -44 -65 -138t-97 -144q-36 -47 -59 -47q-18 0 -14 24q4 22 14 41q29 65 67 160.5t44 120.5q1 3 2.5 9t2.5 9t2.5 8t2.5 7.5t3 6t4 5t4.5 3.5t5.5 2.5t7 0.5zM686 1059h2q27 0 33.5 -23.5t-10.5 -64.5q-89 -209 -146 -266 q-37 -37 -57 -37q-16 0 -12 28q2 8 28 71.5t41 111.5q37 123 41 133q6 22 30.5 34.5t49.5 12.5z" />
<glyph unicode="#" horiz-adv-x="921" d="M602 395h-131q-16 0 -27 -16q-26 -53 -38 -88q-12 -30 -15 -70t-4 -43q-7 -26 -18 -47q-13 -22 -44.5 -58t-52.5 -36q-12 0 -23 23t-7 44q5 40 30 89q5 12 17 37.5t32 67.5t37 77q6 12 4 16t-14 4q-34 0 -77.5 -1t-45.5 -1q-26 0 -43 19q-9 13 -7.5 29t13.5 26 q15 18 70 18q10 0 55.5 -2t75.5 -2q18 0 29 19q20 36 67 133q7 16 -10 16q-55 0 -84 -4q-20 -2 -29 -2.5t-16 -1.5q-26 0 -47 25q-9 12 -7.5 29.5t13.5 27.5q23 23 49 20q70 -7 160 -4q20 0 31 21q15 31 47.5 103t50.5 108q12 24 37 24q35 0 55 -20q17 -22 -12 -70 q-50 -77 -86 -151q-11 -16 14 -19q24 0 67 -1t58 -1q18 0 29 23q65 125 80 168q15 35 39 49q19 14 37 14q22 0 36 -24q5 -8 4.5 -25t-8.5 -27q-7 -11 -21 -35t-35.5 -61.5t-35.5 -60.5q-11 -23 10 -23h121q26 0 40.5 -18.5t14.5 -34.5t-26 -30.5t-49 -14.5q-2 0 -63.5 5 t-88.5 5q-18 0 -26 -10q-11 -22 -68 -131q-12 -21 10 -21q122 4 137 4q26 0 46 -15t20 -34q-4 -23 -26.5 -34t-49.5 -11q-104 0 -176 2q-22 0 -29 -14q-14 -22 -39 -78q-34 -72 -43 -135q-8 -60 -30 -100q-39 -56 -68 -56q-19 0 -28.5 31.5t-2.5 56.5q24 68 56 129 q13 33 69 148q4 9 5 12.5t-2.5 5.5t-12.5 2zM520 481h129q17 0 27 16q1 2 2 3q27 51 65 133q7 14 -12 14q-14 0 -58.5 1t-68.5 1q-21 0 -31 -18q-35 -68 -61 -129q-9 -21 8 -21z" />
<glyph unicode="$" d="M778 299v-2q0 -64 -61 -121.5t-143 -90t-162 -40.5q-19 -3 -29 -25q-8 -19 -20.5 -50t-19 -48t-14.5 -38t-11.5 -35t-4.5 -23q3 -46 -39 -70q-33 -14 -47 -14q-20 0 -23.5 25t9.5 51q10 19 88 196q7 12 4.5 17.5t-16.5 5.5q-50 2 -109 14t-86 31q-42 29 -37 61 q0 20 33 43q14 11 31.5 11t30.5 -13q58 -52 178 -61q18 0 24 12q8 19 45.5 108.5t63.5 151.5q5 12 4 16.5t-10 8.5q-85 46 -111 69q-49 44 -49 103q0 26 15 58t40 57q111 114 275 141q20 6 24 18l74 191q14 43 45 43q20 0 35 -19q9 -9 12.5 -25t-6.5 -42q-26 -41 -70 -142 q-4 -10 -2 -13t13 -3q40 -2 110 -18q23 -7 35 -20.5t12 -26.5q-2 -16 -25.5 -34t-45.5 -18t-43 6q-7 2 -24 7.5t-31.5 9t-24.5 4.5q-18 0 -27 -21q-15 -37 -51.5 -125.5t-48.5 -119.5q-3 -10 -0.5 -13t12.5 -8q91 -38 134.5 -76t43.5 -104zM412 616v-2q0 -16 6 -29t20.5 -25 t24.5 -18t31 -18q10 -3 15 -1t9 12q68 162 88 219q3 11 -12 8q-62 -12 -122 -53.5t-60 -92.5zM668 274v2q0 30 -25 54.5t-86 48.5q-16 9 -22 -4q-27 -62 -97 -232q-6 -15 11 -12q29 4 63.5 15t71 28t60.5 43.5t24 56.5z" />
<glyph unicode="%" horiz-adv-x="1337" d="M1231 973h2q22 0 38 -14t19 -31q3 -13 -4.5 -27t-21.5 -22q-52 -25 -281 -265q-197 -207 -463 -501q-41 -44 -41 -93q0 -33 -61 -83q-48 -43 -74 -43q-8 0 -19 12t-14 22q-15 31 4 60q12 19 104.5 122t234.5 259t198 219q280 310 293 323q58 62 86 62zM586 967h2 q71 0 122.5 -68t51.5 -147q0 -58 -39 -129q-40 -65 -141.5 -113.5t-180.5 -48.5q-63 0 -101 37.5t-38 105.5q0 58 44 129t97 121q36 30 89 47q18 7 40 27q27 39 54 39zM594 850h-2q-57 0 -107 -43q-59 -46 -87.5 -99t-28.5 -96q0 -27 19 -45t50 -18q74 0 149 58.5t75 133.5 q0 45 -16.5 77t-51.5 32zM1133 477h2q81 0 145 -39q72 -45 72 -129q0 -39 -44.5 -110.5t-88.5 -108.5q-56 -49 -122 -81t-104 -32q-19 0 -43.5 9t-50.5 27.5t-43.5 53t-17.5 78.5q0 103 106 226q49 55 101 80.5t88 25.5zM1169 393h-2q-62 0 -127 -57q-39 -36 -71.5 -91 t-32.5 -85q0 -34 18 -58t50 -24q73 0 139 61q46 39 75 88.5t29 79.5q0 26 -25.5 56t-52.5 30z" />
<glyph unicode="&#x26;" horiz-adv-x="1228" d="M772 950h2q37 0 60 -28q16 -19 4 -45q-12 -21 0 -39q10 -12 19 -36t9 -46q0 -67 -59 -126.5t-160 -123.5q-16 -10 -12 -27q61 -124 135 -227q12 -14 29 -6q121 87 157 166q14 26 -4 57q-13 16 19 72q17 25 24 35t20 22t25 12q21 0 45.5 -23t24.5 -52q-1 -47 -39.5 -113 t-73.5 -105q-45 -52 -147 -133q-13 -6 -2 -20q91 -98 196 -98q115 0 191 129q5 11 13.5 14t15 -2.5t6.5 -16.5q0 -16 -10 -38q-29 -78 -103 -129.5t-158 -51.5q-66 0 -131 37.5t-116 93.5q-14 12 -29 2q-190 -129 -340 -129q-81 0 -138 60t-57 139q0 60 33 111q7 13 18 26.5 t20.5 25t26 25.5t26.5 23t30 24t29 21.5t31 21.5t28.5 19t29.5 18.5t25 16.5q15 11 9 29q-19 59 -19 108q1 81 44 147.5t106 108.5q34 25 77 38t70 13zM713 842h-2q-47 0 -90 -52.5t-43 -115.5q0 -54 14 -88q3 -9 7.5 -9.5t16.5 7.5q27 17 47 31.5t46 37.5t40 48.5t15 50.5 q2 36 -9.5 63t-41.5 27zM446 74h3q78 0 223 92q17 10 4 29q-74 104 -137 221q-6 15 -23 4q-211 -131 -211 -236q0 -47 39.5 -78.5t101.5 -31.5z" />
<glyph unicode="'" horiz-adv-x="237" d="M442 1065h2q12 0 37 -14q41 -29 37 -54q-8 -44 -65 -138t-97 -144q-36 -47 -59 -47q-18 0 -14 24q4 22 14 41q27 59 65 156.5t46 124.5q1 3 2.5 9t2.5 9t2.5 8t2.5 7.5t3 6t4 5t4.5 3.5t5.5 2.5t7 0.5z" />
<glyph unicode="(" horiz-adv-x="653" d="M186 119v2q0 114 37.5 250.5t77.5 208.5q63 118 167.5 238.5t195.5 180.5q98 64 137 64q32 0 53 -31q11 -15 2.5 -31t-33.5 -26q-151 -68 -255 -175.5t-191 -271.5q-39 -75 -61.5 -190.5t-22.5 -214.5q0 -217 117 -359q61 -74 61 -96q0 -14 -18.5 -24.5t-34.5 -10.5 q-22 0 -66 31q-74 60 -120 195t-46 260z" />
<glyph unicode=")" horiz-adv-x="673" d="M483 1067h2q21 0 47.5 -14.5t58.5 -47t64 -97.5t54 -152q16 -78 16 -170q0 -216 -110.5 -434t-278.5 -359q-166 -143 -236 -143q-22 0 -43 18q-26 24 4 62q18 20 28.5 26.5t21.5 5.5q24 0 75 29q165 104 295 305q144 228 144 473q0 115 -31 219t-84 152q-29 23 -64 27 q-32 3 -38 26q-8 21 18 47q31 27 57 27z" />
<glyph unicode="*" horiz-adv-x="712" d="M631 989h2q13 0 27 -9t18 -22q8 -27 -8 -59q-31 -68 -45 -113q-6 -15 -3.5 -19t17.5 -1q79 14 123 29q36 18 45 18q16 -2 31.5 -13t15.5 -32q0 -14 -16.5 -28t-32.5 -17q-41 -12 -131 -23q-21 -4 -21 -6q-2 -7 23 -32q4 -4 43 -41t47 -46q22 -25 22 -45q0 -12 -9 -25.5 t-21 -19.5q-28 -14 -41 11q-9 15 -25 35.5t-27.5 34t-33 37t-25.5 28.5q-18 21 -28 16q-8 -4 -19 -41q-1 -4 -17.5 -59.5t-23.5 -85.5q-7 -33 -26 -33q-16 0 -35 23q-22 32 -6 81q6 17 23 60t20 53q4 13 -0.5 17.5t-16.5 1.5q-97 -15 -172 -52q-11 -3 -24.5 0.5t-20.5 12.5 q-12 15 -12 32q1 10 15 25t26 20q4 1 24.5 4t62.5 10t87 15q16 1 18 7t-8 18q-19 20 -60.5 54.5t-54.5 43.5q-17 20 -14 35q1 17 16 27t27 10q19 0 43 -27q8 -7 27.5 -26.5t43 -43.5t27.5 -28q9 -9 13.5 -7.5t9.5 15.5l27 119q6 26 23 43.5t30 17.5z" />
<glyph unicode="+" horiz-adv-x="1130" d="M676 463v55q0 22 6 205q1 23 17 32t30 9q24 0 49 -29q20 -20 13 -67q-14 -57 -17 -207q0 -18 4 -25.5t17 -7.5q25 0 155 2t140 2q29 0 44 -22.5t15 -47.5q0 -30 -59 -30q-30 0 -135.5 2t-163.5 2q-23 0 -23 -49q0 -196 10 -258q6 -25 -6 -40.5t-39 -15.5q-23 0 -47 17 t-24 43q0 5 2.5 44.5t5 92t2.5 88.5v43q0 22 -6 28.5t-27 6.5q-41 0 -131.5 -1t-130.5 -1q-22 0 -38.5 14t-16.5 29q0 30 38 49q29 10 115 6l174 -2q17 0 22 6.5t5 26.5z" />
<glyph unicode="," horiz-adv-x="309" d="M217 233h2q36 0 58.5 -30t23.5 -82q0 -107 -81.5 -208t-194.5 -167q-49 -33 -70 -33q-12 0 -12 17q0 16 26 37q81 63 142 150t61 155q0 31 -22 71q-16 13 -3 39q8 20 28 35.5t42 15.5z" />
<glyph unicode="-" horiz-adv-x="536" d="M586 422v-2q0 -23 -26 -50.5t-64 -37.5q-42 -12 -142.5 -39.5t-144.5 -40.5q-26 -6 -35 6q-11 14 10 45q27 50 113 74q37 13 136 38t126 25t27 -18z" />
<glyph unicode="." horiz-adv-x="309" d="M203 158h2q30 0 57 -29t27 -55q0 -33 -40.5 -65t-82.5 -32q-23 0 -43.5 22.5t-20.5 47.5q0 34 33.5 72.5t67.5 38.5z" />
<glyph unicode="/" horiz-adv-x="743" d="M883 985h2q36 0 45 -35q9 -39 -31 -88q-253 -313 -551 -756q-94 -139 -116 -176.5t-19 -62.5q3 -31 -31.5 -55.5t-66.5 -24.5q-31 0 -47 25q-20 29 -9 61q9 30 35 49q62 46 221 289q117 179 251 367t210 286q25 37 47 88q7 16 25.5 24.5t34.5 8.5z" />
<glyph unicode="0" d="M881 678v-2q0 -67 -40 -185.5t-91 -201.5q-50 -83 -125.5 -157t-137.5 -112q-34 -21 -77 -34t-72 -13q-66 0 -125 70q-53 67 -53 168q0 122 76.5 285t175.5 264q68 68 138 117t105 49q16 0 33 -17q9 -6 37 -6q68 0 112 -68t44 -157zM764 672v2q0 24 -4 48t-13 49 t-27.5 40.5t-43.5 15.5q-21 0 -29 -18q-17 -39 -53 -41q-29 -2 -57 -18.5t-68 -59.5q-68 -73 -127 -207.5t-59 -249.5q0 -45 9.5 -78t24.5 -49.5t28.5 -24t25.5 -7.5q56 0 121 57q44 39 105 118.5t93 153.5q74 172 74 269z" />
<glyph unicode="1" d="M772 938h2q19 0 30 -19.5t15 -44.5q5 -28 -22 -51q-7 -6 -13.5 -12.5t-11 -11.5t-10.5 -14.5t-8.5 -13.5t-9 -16t-8 -16t-9.5 -20t-10 -21q-13 -29 -180 -467q-22 -55 -9 -100q17 -49 17 -65q0 -25 -41 -66t-64 -41q-18 0 -34 19.5t-15 58.5q6 52 29 125q42 143 168 500 q14 39 2 45q-10 2 -53 -15q-92 -26 -123 -30q-35 -7 -75 0t-40 26q0 13 33 23q1 1 65 23t118 44.5t103 48.5q19 8 39 33q13 17 29 31q54 47 86 47z" />
<glyph unicode="2" d="M629 924h2q80 0 130.5 -49.5t47.5 -131.5q-1 -48 -26.5 -100t-48 -79t-60.5 -68q-8 -9 -291 -277q-76 -69 -80 -92q0 -20 59 -25q47 -4 183 -4q56 0 127.5 12.5t77.5 12.5q41 0 28 -45q-9 -18 -38 -44.5t-52 -39.5q-27 -16 -70 -2q-54 18 -180 18q-80 0 -161 1t-87 1 q-16 -2 -31 -5.5t-27.5 -7.5t-18.5 -5q-24 -6 -41 8q-8 8 -13 22.5t-4 26.5q7 31 41 49q39 15 150 117q112 100 187 173.5t173 180.5q86 91 86 162q0 46 -31 68t-75 22q-51 0 -119.5 -56.5t-106.5 -111.5q-9 -13 -29.5 -16t-35.5 6q-31 22 -31 47q0 21 18 44t53.5 48.5 t56.5 38t57 33.5q118 68 180 68z" />
<glyph unicode="3" d="M553 930h2q56 0 106 -22t80 -50q20 -20 32.5 -50t12.5 -52q0 -61 -61 -125q-21 -23 -70.5 -57.5t-81.5 -51.5q-19 -7 -21 -17t13 -16q34 -13 57.5 -24t52 -28.5t45.5 -37t28.5 -47.5t11.5 -61q0 -35 -22 -81t-58 -83q-72 -71 -177.5 -116.5t-223.5 -55.5q-16 -2 -52 -2 q-37 0 -90 31.5t-53 68.5q0 27 33 45.5t61 16.5q60 -5 111 -45q18 -15 35 -15q61 0 136 31.5t118 69.5q69 62 69 112q0 35 -24.5 67t-67.5 54q-56 29 -174 33q-28 0 -53 13t-25 34q0 20 21 37.5t47 17.5q31 0 101 32.5t120 76.5q74 59 74 102q0 51 -44 79t-110 28 q-35 0 -51 -12t-31 -42q-6 -20 -27 -40.5t-36 -20.5q-19 0 -37.5 19t-18.5 38q0 41 35.5 79.5t71.5 43.5q7 0 25 4.5t28 6.5q58 12 82 12z" />
<glyph unicode="4" d="M793 942h2q29 0 43 -42t10 -71q0 -27 -23 -41q-19 -12 -39 -53q-47 -103 -122 -319q-5 -14 -3.5 -19t11.5 -4q50 3 96 21q35 12 59 4q18 -4 30.5 -17t12.5 -24q0 -27 -39 -60q-21 -19 -57 -8q-29 10 -47 8q-11 -1 -33.5 -4t-34.5 -4q-39 -5 -49 -28q-3 -12 -35 -93 q-23 -61 9 -65q12 0 18 -9t2 -22q-6 -24 -41 -69q-14 -17 -20 -46q-5 -29 -34.5 -66.5t-55.5 -37.5q-23 0 -31 35q-9 49 14 137q22 82 74 227q6 14 3.5 19.5t-17.5 5.5h-54q-94 0 -163.5 12.5t-96.5 28.5q-41 21 -41 61q0 27 42.5 74.5t111.5 99.5q81 63 199.5 147.5 t185.5 117.5q44 21 49 43q6 23 25.5 42t38.5 19zM451 385h77q20 0 29 31q98 256 105 276q12 28 6.5 33t-29.5 -8q-42 -22 -134.5 -89t-144.5 -108q-45 -37 -64 -62t-7 -42q11 -12 54.5 -22t107.5 -9z" />
<glyph unicode="5" d="M684 874h2q89 0 148 21q16 4 51 18.5t49 14.5q20 0 20 -17q0 -27 -65 -75q-53 -37 -118 -48.5t-175 -11.5q-31 0 -45.5 -9.5t-34.5 -43.5q-63 -110 -63 -158q0 -26 24 -45.5t84 -42.5q46 -20 73 -35t54 -39.5t39 -57t12 -77.5q0 -78 -66 -159.5t-145 -124.5 q-104 -58 -188 -58q-50 0 -94 23q-21 12 -45 20q-42 23 -68.5 53t-26.5 60q0 23 14.5 37t39.5 14q42 0 76 -24q12 -9 22.5 -21.5t21 -28.5t15.5 -22q18 -21 61 -21q58 0 120 32.5t105.5 88.5t43.5 115q0 65 -58 102q-21 17 -75.5 40.5t-94.5 35.5q-32 8 -42 17.5t-15 27.5 q-7 30 0 55q8 30 84 205q26 53 35 117q8 32 55 61q25 11 45 -6q46 -33 125 -33z" />
<glyph unicode="6" d="M834 956h2q58 0 96 -30q24 -21 24 -47q0 -17 -19 -34t-50 -28q-34 -11 -56 14q-30 33 -71 33q-25 0 -67.5 -14t-110 -56t-125.5 -104q-73 -76 -115 -159.5t-47 -137.5q-3 -17 2 -20.5t16 6.5q83 60 140.5 89.5t111.5 29.5q108 0 170 -82q49 -55 49 -123 q0 -60 -41.5 -122.5t-95.5 -109.5q-37 -31 -101.5 -56t-103.5 -25q-131 0 -215 108q-61 81 -61 207q0 90 46 208.5t134 213.5q96 102 229 170.5t259 68.5zM547 401h-2q-50 0 -107 -34q-40 -23 -78 -55.5t-51 -51.5q-23 -38 -8 -74q46 -112 150 -112q38 0 88 28.5t88.5 79 t38.5 103.5q0 42 -32.5 79t-86.5 37z" />
<glyph unicode="7" d="M907 911h2q51 0 70 -39q11 -32 -16 -77q-90 -153 -351 -437q-29 -32 -97 -106.5t-102.5 -113t-45.5 -54.5q-16 -21 -20 -39t-0.5 -38t3.5 -21q0 -28 -39 -57t-71 -29q-22 0 -44 22.5t-22 57.5q0 44 47 79q21 15 43 37q24 34 64 78q128 138 254 291.5t166 210.5 q67 90 67 119q0 19 -51 22q-31 2 -203 2q-64 0 -82 -28q-16 -23 -47 -23q-43 0 -92 26.5t-49 53.5q0 22 31.5 47t62.5 25q37 0 74 -9q18 -4 86 -6q27 -1 187.5 2.5t174.5 3.5z" />
<glyph unicode="8" d="M651 956h2q23 0 58 -24q38 -29 60 -47.5t51 -50t43 -67t14 -75.5q-1 -17 -6.5 -33.5t-17.5 -33.5t-23 -31t-31 -31t-33 -28t-36.5 -27t-34 -23.5t-34 -22.5t-28.5 -18q-15 -11 -16.5 -18t10.5 -16q98 -86 94 -172q-3 -72 -61.5 -135t-126.5 -95q-32 -16 -84.5 -28.5 t-90.5 -12.5q-69 0 -141 64.5t-69 136.5q1 21 8 41t16 36t27 35t31 31t38 30t38.5 27t42.5 28t40 26q26 15 0 35q-82 74 -82 151q0 43 25 86.5t66 77.5t78.5 58.5t76.5 43.5q29 12 23 23q-8 16 20 39q27 20 53 20zM420 627v-2q0 -51 82 -117q26 -23 47 -14q70 31 143.5 87.5 t73.5 106.5q0 35 -29 75.5t-63 55.5q-19 13 -62 -6q-69 -27 -130.5 -82.5t-61.5 -103.5zM397 57h2q65 0 137 49t72 111q0 57 -47 107q-57 57 -72 57q-18 0 -94 -51q-127 -88 -127 -160q0 -47 40.5 -80t88.5 -33z" />
<glyph unicode="9" d="M852 682v-2q0 -140 -53 -270q-64 -148 -197.5 -265.5t-288.5 -175.5q-22 -7 -45 -26q-49 -45 -106 -45q-20 0 -42 21t-22 36q0 25 25 48t51 32q16 8 45 8q20 -2 49 4q101 23 204.5 102.5t169.5 178t73 178.5q0 27 -31 2q-53 -43 -132 -81t-138 -38q-70 0 -118 43.5 t-48 124.5q0 89 69 174q138 172 310 172q23 0 26 12q3 19 35 19q51 0 107.5 -71t56.5 -181zM735 735v2q0 26 -12.5 44t-22.5 18q-20 0 -28 6q-17 14 -51 14q-30 0 -77.5 -17t-78.5 -44q-94 -87 -94 -180q0 -39 19.5 -66t47.5 -27q25 0 70 14.5t92 43.5q48 30 81.5 61.5 t41.5 50.5q12 22 12 80z" />
<glyph unicode=":" horiz-adv-x="309" d="M332 582h2q31 0 57.5 -29t26.5 -55q0 -38 -38.5 -68.5t-74.5 -30.5q-24 0 -46.5 20.5t-22.5 47.5q0 41 28.5 78t67.5 37zM203 158h2q30 0 57 -29t27 -55q0 -33 -40.5 -65t-82.5 -32q-23 0 -43.5 22.5t-20.5 47.5q0 34 33.5 72.5t67.5 38.5z" />
<glyph unicode=";" horiz-adv-x="309" d="M332 582h2q30 0 57 -29t27 -55q0 -38 -39 -68.5t-76 -30.5q-25 0 -47.5 20t-22.5 48q0 40 30 77.5t69 37.5zM217 233h2q36 0 58.5 -30t23.5 -82q0 -107 -81.5 -208t-194.5 -167q-49 -33 -70 -33q-12 0 -12 17q0 16 26 37q81 63 142 150t61 155q0 31 -22 71q-16 13 -3 39 q8 20 28 35.5t42 15.5z" />
<glyph unicode="&#x3c;" horiz-adv-x="1015" d="M307 322v2q0 16 20.5 32.5t45.5 24.5q20 8 72.5 36.5t122.5 69t129 75t121 71.5t69 41q42 24 67 24q16 0 25 -13.5t8 -37.5q-4 -42 -53 -67q-127 -56 -383 -195q-53 -30 -53 -45q-3 -21 59 -51q226 -116 326 -185q51 -36 41 -63q-10 -26 -54 -41q-20 -9 -43 8 q-84 70 -230.5 150.5t-248.5 115.5q-15 5 -28 20t-13 28z" />
<glyph unicode="=" horiz-adv-x="1130" d="M442 575h2q10 0 42.5 -1.5t86.5 -4t101 -4.5q58 -2 254 -8q67 -3 100 10q32 6 53 -12q23 -23 23 -47q0 -23 -29 -34t-67 -11q-21 0 -48 0.5t-74.5 1.5t-94.5 2q-72 1 -169.5 4.5t-115.5 3.5q-46 0 -96 -10q-28 -3 -48 22q-18 25 -18 43q0 22 29 35q17 10 69 10zM848 266 h2q114 0 168 13q39 10 76 -27q17 -17 16 -35.5t-20 -26.5q-30 -18 -113 -18q-162 0 -346 8q-94 4 -191 4q-32 0 -51 -14q-17 -14 -41 2q-35 31 -35 66q0 32 45 41q35 8 166 2q245 -15 324 -15z" />
<glyph unicode="&#x3e;" horiz-adv-x="1015" d="M958 365v-3q0 -31 -55 -75q-40 -32 -198.5 -117t-321.5 -158q-55 -26 -84 -26q-17 0 -36.5 11.5t-18.5 25.5q0 19 26 41.5t58 35.5q83 30 233 99.5t217 111.5q35 21 35 35q0 18 -45 43q-247 159 -401 207q-35 14 -35 35q0 14 37 37.5t55 23.5q15 0 31.5 -7t26 -13 t36.5 -25q29 -20 145.5 -87.5t170.5 -96.5l96 -47q28 -14 28 -51z" />
<glyph unicode="?" horiz-adv-x="546" d="M555 938h2q63 0 125.5 -37t62.5 -94q0 -37 -33 -78t-81 -76q-33 -22 -117 -72t-115 -67q-55 -34 -55 -68q-3 -37 23.5 -64.5t48.5 -27.5q9 0 39 21q46 37 80 37q20 0 38.5 -15t18.5 -30q0 -24 -43 -52.5t-74 -33.5q-42 -9 -74 -5q-90 11 -141 76q-39 48 -39 92 q0 29 31.5 70.5t73.5 71.5q25 18 235 135q70 37 70 78q0 23 -21 37t-43 14q-19 0 -39 -23q-24 -24 -49 -24q-34 0 -76.5 15t-42.5 40q0 19 25 36t53 24q72 20 117 20zM307 -33h-2q-27 0 -52.5 29t-25.5 76q1 35 26.5 62.5t53.5 27.5q35 0 63.5 -30.5t28.5 -70.5 q0 -34 -31.5 -64t-60.5 -30z" />
<glyph unicode="@" horiz-adv-x="1298" d="M967 965h2q95 0 171.5 -31.5t124 -85.5t72.5 -122.5t25 -145.5q0 -104 -58 -206t-151.5 -166.5t-189.5 -64.5q-34 0 -65.5 35.5t-31.5 77.5v76q0 24 -14 10q-25 -25 -86 -77.5t-100 -78.5q-64 -43 -115 -43q-17 0 -38 20.5t-21 59.5q0 58 65 172q47 77 115 151.5 t145 123.5q82 53 133 53q22 0 39 -33q7 -13 25 -2q7 7 11 7.5t17 -5.5q10 -8 13 -10.5t8 -9t4 -13.5t-6 -16q-91 -154 -100 -285q-7 -50 6.5 -85t46.5 -35q89 0 167.5 100.5t78.5 234.5q0 145 -93 224t-249 79q-135 0 -272 -86t-225.5 -224.5t-88.5 -278.5 q0 -161 109.5 -257t301.5 -96q71 0 169.5 25.5t136.5 48.5q22 10 26 -4t-16 -33q-161 -121 -430 -121q-80 0 -156 31.5t-132.5 83t-91 121t-34.5 141.5q0 126 45 243t121.5 205.5t173 155.5t203.5 101.5t209 34.5zM895 631h-2q-10 0 -38 -19t-62 -53q-114 -110 -172 -248 q-9 -22 -7.5 -37.5t13.5 -15.5q33 0 75 39q86 76 140 141q32 40 78 109q19 28 16 49q-2 13 -13 24t-28 11z" />
<glyph unicode="A" horiz-adv-x="991" d="M831 971h3q20 0 43 -41q10 -26 -11 -47q-25 -21 -34.5 -32.5t-10.5 -25.5q-3 -58 13 -315q3 -21 9 -24q3 -1 7 -1q79 0 174 -10q32 -4 29 -17q-4 -13 -37 -24q-57 -19 -158 -28q-19 0 -16 -21q17 -168 30 -219q7 -26 22 -32t42 1q17 4 23 -6t4 -25q-4 -48 -36.5 -79 t-74.5 -31q-60 0 -80 100q-28 202 -33 291q-1 9 -5 10.5t-19 1.5q-130 -3 -228 -22q-70 -12 -96 -45q-128 -146 -139 -224q0 -29 2 -47q4 -27 -23 -49q-69 -51 -114 -51q-19 0 -33 17.5t-12 39.5q0 43 80 148q27 37 147 186q10 14 10 31q0 18 15 39q25 32 51 37q21 4 47 37 q95 120 208.5 264t117.5 149q53 64 83 64zM707 483h2q14 0 17 3.5t3 15.5q-1 32 -5 90.5t-5 95.5q-2 21 -8 21.5t-23 -19.5q-45 -49 -147 -190q-10 -14 -6 -20t22 -3q62 6 150 6z" />
<glyph unicode="B" horiz-adv-x="800" d="M926 754v-2q0 -36 -35.5 -80t-83.5 -80q-64 -45 -178 -105q-7 -4 -8.5 -6.5t0.5 -4t10 -3.5q29 -11 78.5 -37t68.5 -41q45 -39 45 -104q0 -46 -73 -129q-23 -26 -98 -76.5t-126 -73.5q-32 -16 -77.5 -27.5t-63.5 -11.5q-11 0 -23 5t-30.5 16t-24.5 14q-15 8 -35 -10 q-12 -12 -28 -12q-13 0 -25 19.5t-17 68.5t17 133q25 95 99 301t120 313q9 17 2 25.5t-39 9.5q-33 3 -14 35q10 20 35.5 31.5t46.5 11.5q12 0 23 18q22 56 55 56q22 0 51 -25q16 -16 10 -39q-1 -8 1.5 -10t11.5 -5q1 0 2 -0.5t2 -0.5q64 -11 135 -32.5t104 -41.5 q27 -15 44.5 -44t17.5 -56zM807 750v2q0 22 -55 47q-98 36 -177 39q-8 0 -14 -5t-8 -8.5t-8 -17.5q-8 -16 -51 -124.5t-52 -133.5q-11 -31 15 -31q54 0 118 27q65 30 148.5 94.5t83.5 110.5zM705 281v2q0 20 -12 35.5t-50 39.5q-114 70 -215 70q-23 0 -33 -20 q-19 -41 -38.5 -99.5t-20.5 -87.5q-3 -33 2 -47q6 -26 2 -49q0 -15 -8 -35q-3 -9 2 -12.5t20 -3.5q64 0 142 32q67 26 138 81.5t71 93.5z" />
<glyph unicode="C" horiz-adv-x="808" d="M788 965h3q43 0 75.5 -22.5t32.5 -65.5q0 -38 -32 -65t-56 -32q-17 -3 -20 5t2 16q8 19 8 30t-11 20t-32 9q-63 0 -142 -53.5t-141 -130.5q-79 -105 -129.5 -222t-50.5 -227q0 -71 33.5 -107t93.5 -36q189 0 471 219q22 18 31 7t-2 -36q-14 -30 -85.5 -91t-170.5 -115 q-161 -93 -299 -93q-97 0 -145 73.5t-48 180.5q0 121 59.5 258.5t167 258t236.5 180.5q79 39 151 39z" />
<glyph unicode="D" horiz-adv-x="978" d="M1063 612v-2q0 -87 -43 -178t-107.5 -162t-124 -121t-108.5 -79q-77 -44 -162.5 -66t-146.5 -22q-32 0 -72 37.5t-51 99.5q-5 38 22 145q20 87 191 547q5 13 1.5 17.5t-13.5 2.5q-65 -5 -130 -45q-14 -8 -25 7t-11 32q0 47 55 70q67 29 149 29q17 0 23 16q35 61 65 61 q26 0 44.5 -20.5t13.5 -42.5q-1 -8 2.5 -10t11.5 -2q187 -10 301.5 -102t114.5 -212zM948 616v2q0 58 -34.5 102.5t-89 68t-108 35.5t-104.5 14q-13 0 -19 -5.5t-15 -25.5q-46 -106 -99.5 -260t-83.5 -256q-39 -130 -12 -176q9 -15 29.5 -29t42.5 -14q40 0 102.5 31 t129.5 86.5t126 123t97 148.5t38 155z" />
<glyph unicode="E" horiz-adv-x="843" d="M592 920h192q115 0 164 -43q14 -13 18 -25t-3 -16q-9 -9 -50 -2q-33 4 -149 4q-52 0 -176 -13q-28 -3 -38.5 -13t-19.5 -42q-30 -96 -65 -219q-5 -13 -2.5 -19.5t14.5 -7.5q58 -11 178 -8q79 0 176 19q19 4 17 -8q-2 -13 -25 -35q-45 -39 -116 -52q-76 -15 -256 -18 q-14 0 -20 -5t-11 -18q-97 -262 -101 -272q-5 -13 -1.5 -20.5t20.5 -10.5q88 -10 209 -10q117 0 183.5 11t146.5 42q25 10 27 -3q1 -11 -19 -25q-100 -68 -199 -94t-264 -27q-90 0 -176 6q-54 2 -89.5 12.5t-35.5 28.5q0 14 25.5 38t39.5 27q11 4 21 23q15 33 94 274 q8 26 -10 39q-24 15 -27 39q-4 18 23 27q36 15 46.5 23.5t16.5 27.5q26 81 60 199q5 24 2.5 31.5t-15.5 17.5q-28 21 -34.5 34t4.5 21q20 16 57 27q15 8 24 21.5t21 47.5q10 33 33 29q24 -3 47 -47q7 -10 15 -13t28 -3z" />
<glyph unicode="F" horiz-adv-x="831" d="M627 903h182q27 0 37.5 4.5t15.5 14.5q9 22 43 14t68.5 -31t34.5 -43q0 -18 -39 -37q-54 -29 -78 -20q-1 0 -18 5.5t-31.5 8t-30.5 2.5h-205q-8 0 -13 -4.5t-7.5 -10.5t-7.5 -20q-95 -256 -105 -290q-8 -25 14 -25q6 0 58.5 3t129 7t132.5 6h145q17 -1 23 -9t-2 -17 q-28 -21 -53 -29q-74 -24 -177 -35q-235 -27 -268 -32q-29 -3 -40 -12.5t-23 -35.5q-13 -32 -38.5 -91.5t-39.5 -92.5q-16 -31 10 -43q25 -9 73.5 -8t76.5 10q22 6 26 -3t-14 -28q-31 -33 -92 -56t-121 -23q-85 0 -123 30q-13 10 -15.5 23t5.5 20q14 18 51 37q21 16 33 43 q41 139 51 182q8 26 -16 58q-13 19 -9 31t27 26q30 20 42 30.5t19 26.5q8 16 48.5 140t50.5 166q3 26 -15 26q-43 0 -84 -33q-26 -21 -39 -4q-19 22 -4 52q18 41 56 71q44 38 94 11q18 -15 18 2q5 22 9 36q6 29 30 29q31 0 58.5 -24t25.5 -48q-1 -7 3.5 -8.5t17.5 -1.5z" />
<glyph unicode="G" horiz-adv-x="919" d="M174 219v2q0 169 108 340t300 295q153 98 284 98q29 0 58.5 -11.5t44.5 -24.5q13 -11 15 -26t-11 -28q-31 -31 -70 -41q-48 -12 -78 8q-38 19 -59 19q-39 0 -120 -54t-169 -153q-83 -93 -130.5 -204t-47.5 -203q0 -77 23.5 -114.5t58.5 -37.5q50 0 140 53t175 127 q42 36 70 74.5t33 64.5q5 32 35 62q51 51 94 51q28 0 49 -27q14 -17 -10 -45q-54 -63 -95 -194q-13 -38 -47.5 -131t-42.5 -121q-16 -72 -26 -109q-8 -41 -45 -67q-17 -12 -46.5 -20.5t-50.5 -8.5q-20 1 -23.5 18t11.5 37l64 82q39 48 84 240q3 16 -3.5 21t-21.5 -7 q-48 -43 -121 -94t-115 -72q-75 -38 -155 -38q-33 0 -70 36.5t-61 83.5q-29 59 -29 119z" />
<glyph unicode="H" horiz-adv-x="1079" d="M1122 961h2q17 0 29.5 -15t17.5 -35q6 -35 -26 -98q-72 -142 -121 -291q-3 -10 -1.5 -13t13.5 -3q137 0 168 6q23 3 27.5 -6t-12.5 -23q-70 -41 -207 -55q-14 -2 -19 -4.5t-8 -11.5q-8 -21 -43 -140q-3 -19 -1 -23.5t13 -6.5q13 0 18.5 -11.5t-1.5 -31.5 q-17 -54 -59.5 -120t-67.5 -89q-20 -17 -35 -17q-20 1 -27 31.5t-2 67.5q8 35 46.5 171t47.5 158q6 21 -10 21q-12 0 -206 -5t-218 -5q-13 0 -19.5 -4.5t-14.5 -18.5q-61 -116 -82 -201q-3 -18 -0.5 -22.5t12.5 -7.5q19 -4 25.5 -22.5t-1.5 -41.5q-4 -15 -14 -30t-24 -32.5 t-17 -21.5q-37 -47 -80 -47q-50 0 -24 137q12 54 44 152.5t44 128.5q12 26 -6 29q-37 15 -37 36q0 13 26 29.5t50 24.5q17 4 28 26q3 9 70.5 185t75.5 200q22 56 53 56q16 0 34 -14.5t26.5 -43t-11.5 -71.5q-9 -19 -65.5 -151t-65.5 -155q-6 -17 -4 -20.5t16 -3.5l404 -2 q15 0 20 3t8 13q16 51 72.5 202t81.5 194q15 26 26.5 34.5t30.5 8.5z" />
<glyph unicode="I" horiz-adv-x="579" d="M602 981h2q19 0 35.5 -16.5t19.5 -36.5q3 -16 19 -19q56 -6 125 -24q16 -3 16 -15q0 -15 -27 -23.5t-47 -8.5h-96q-10 0 -17 -7t-16 -26q-81 -177 -165 -384.5t-97 -291.5q-6 -27 13 -27q40 0 92.5 2t58.5 2q35 3 60 -4q30 -11 -1 -31l-16 -8q-92 -40 -215 -45 q-7 0 -23.5 -13t-27.5 -17q-8 -4 -21 -4t-30 20q-9 14 -29 14q-10 0 -23 -3t-30 -8t-23 -7q-20 -6 -37 14q-12 12 -11.5 29t13.5 27q36 39 125 39q15 0 19 18q23 112 78 268t157 412q6 14 2.5 18.5t-18.5 3.5q-46 0 -86 -8q-30 -5 -41 17q-10 11 -7 28.5t19 28.5 q15 13 43 16q65 9 115 9q21 0 31 10q9 18 14.5 26.5t18 16.5t28.5 8z" />
<glyph unicode="J" horiz-adv-x="460" d="M532 969h3q17 0 37.5 -14.5t27.5 -28.5q11 -32 -20 -68q-19 -22 -33 -57q-18 -43 -139 -484q-53 -198 -103.5 -324.5t-109.5 -187.5q-68 -74 -172 -110l-62 -27q-27 -10 -51 -10q-42 0 -103 35q-47 28 -47 71q0 20 24 33t46 13q16 0 47 -11t47 -20q27 -17 53 -17 q16 0 44.5 14t56.5 38q33 33 59 76.5t56 125.5q34 89 69 203t61.5 208.5t100.5 367.5q3 11 1 14.5t-11 3.5q-28 3 -54 17.5t-26 31.5q0 21 24 33q14 5 58 14q43 4 69 37q23 23 47 23z" />
<glyph unicode="K" horiz-adv-x="1005" d="M1106 950h2q17 0 35.5 -17t17.5 -40q0 -47 -45 -70q-24 -12 -72 -47q-47 -35 -145 -98t-195.5 -123.5t-113.5 -71.5q-18 -11 -21.5 -25t6.5 -22q66 -58 171.5 -169.5t130.5 -143.5q16 -24 36 4q19 31 41 31q17 0 29 -27.5t12 -54.5q0 -34 -43.5 -71.5t-68.5 -37.5 q-31 0 -60 39q-210 278 -352 379q-45 34 -51 43q-13 17 -23 -12q-19 -45 -53 -144q-10 -31 -8.5 -52.5t12.5 -29.5q18 -18 -12 -59q-29 -43 -60 -104q-13 -26 -31.5 -42t-33.5 -16q-16 0 -25 26t-4 84.5t31 133.5q31 89 101 271t98 245q29 76 22 131q-4 26 12 49 q11 17 37 36.5t47 19.5q23 0 37.5 -20t18.5 -44q3 -39 -21 -78q-36 -65 -119 -284q-11 -27 7 -27q26 0 198.5 112t276.5 189q65 51 108 100q20 20 34.5 28.5t35.5 8.5z" />
<glyph unicode="L" horiz-adv-x="833" d="M604 74h2q147 0 254 63q29 18 31 0q1 -14 -17 -33q-122 -122 -337 -122q-65 0 -205 8q-55 10 -68 10q-9 0 -17 -2t-21 -8t-17 -8q-15 -10 -31.5 -3.5t-19.5 21.5q-5 19 -19 51q-8 10 -5 28.5t16 31.5q20 20 36 20q15 0 29 33q80 184 205 620q5 17 4 23.5t-10 5.5 q-23 2 -43.5 11.5t-20.5 23.5q0 17 45 35q60 18 90 61q17 23 41 23q21 0 42.5 -17.5t29.5 -38.5q9 -25 -14 -59q-21 -28 -35 -72q-1 -2 -49.5 -142t-87.5 -245q-47 -135 -95 -248q-14 -31 15 -39q108 -32 272 -32z" />
<glyph unicode="M" horiz-adv-x="1435" d="M743 141h2q22 0 74 49q44 40 100.5 107t111 140.5t97 133.5t80 114.5t37.5 55.5q39 56 39 86q0 60 29 60q15 0 22.5 4t14.5 18q10 21 26 21q30 0 45.5 -43.5t-2.5 -87.5q-40 -88 -72 -270.5t-36 -272.5q-2 -43 -2 -106q3 -32 34 -19q72 19 72 -10q0 -21 -37.5 -61.5 t-81.5 -67.5q-27 -15 -49 -15q-30 0 -65 31q-20 20 -4 49q6 8 14 60q22 216 76 475q3 15 -3 15q-6 -1 -14 -13q-120 -176 -230.5 -311t-174.5 -199q-3 -3 -18.5 -19t-20 -20t-18 -16.5t-20 -16.5t-17.5 -10.5t-20.5 -9t-18.5 -2.5q-29 0 -54 28.5t-41.5 73t-27 87.5 t-15.5 83q-32 260 -34 295q-6 32 -20 0l-3 -6q-175 -402 -260 -524q-26 -36 -42 -50t-32 -14q-32 0 -63 46t-31 75q0 34 19.5 46.5t52.5 6.5q31 -8 61 31q14 20 52 87.5t98 187t106 229.5q19 52 0 76q-22 35 -22 57q1 17 22 32t64 35q24 10 35 31q31 55 53 55q32 0 50.5 -33 t0.5 -71q-18 -36 -25.5 -52.5t-15.5 -47t-8 -62.5q-1 -69 13.5 -199.5t33.5 -236.5q11 -61 28.5 -88t34.5 -27z" />
<glyph unicode="N" horiz-adv-x="1028" d="M487 938h2q33 0 52 -39q19 -43 0 -70q-19 -32 -19 -41q0 -16 23 -61q173 -325 260 -467q19 -35 31 4q93 293 165 465q52 138 99 209q31 31 57 31q29 0 45 -41t19 -76q3 -34 -35 -37q-26 -5 -38.5 -14t-21.5 -31q-114 -241 -190 -514q-25 -90 -25 -127q0 -29 25 -66 q14 -23 -8 -53q-22 -26 -51 -26q-34 0 -64 39q-70 126 -96 170q-52 88 -228 413q-7 12 -13 10.5t-13 -18.5q-111 -245 -139 -346q-12 -46 -15 -78q-7 -85 -13.5 -105t-41.5 -77q-21 -33 -53 -33q-26 0 -43 20t-17 54q0 25 23 78q64 153 140.5 348t88.5 233q10 26 -8 41 q-24 19 -14 45q11 33 37 51q15 15 12 33q-5 18 22 53q23 23 45 23z" />
<glyph unicode="O" horiz-adv-x="927" d="M793 967h2q58 0 109.5 -29t86.5 -78q41 -59 41 -174q0 -149 -82.5 -298t-187.5 -247q-94 -84 -185.5 -121.5t-160.5 -37.5q-43 0 -91.5 19.5t-86.5 57.5q-31 30 -46.5 82t-15.5 103q0 119 81 281.5t214 277.5q48 41 104 70t86.5 38t40.5 9q14 0 31 20q10 10 29 18.5 t31 8.5zM696 831h-2q-35 0 -100.5 -52t-136.5 -148q-156 -222 -156 -400q0 -69 29.5 -114t91.5 -45q41 0 108 30.5t129 83.5q107 96 191 256.5t84 300.5q0 70 -51 109q-37 26 -40 8q0 -2 1 -6q5 -28 -10 -45q-27 -31 -62 -31q-24 0 -31 25q-4 12 -17.5 20t-27.5 8z" />
<glyph unicode="P" horiz-adv-x="802" d="M942 694v-2q0 -58 -56 -127.5t-114 -105.5q-116 -68 -227 -105q-21 -6 -41 -6q-13 0 -28 6t-15 15q0 18 16 34q23 23 107 66q11 5 44.5 21.5t48.5 25t43.5 25.5t43 31t31.5 34t24.5 43t7.5 49q0 51 -35 85.5t-77 47t-86 13.5q-30 0 -41 -25q-17 -35 -94 -241 q-2 -5 -30.5 -85t-42 -118.5t-36.5 -109.5t-39 -128q-6 -24 -0.5 -32.5t27.5 -14.5q15 -4 39.5 -7t59 -5.5t44.5 -3.5q15 -1 20.5 -7t1 -14t-17.5 -16q-46 -37 -162 -37q-42 0 -59 -14q-26 -21 -53 -21q-31 0 -57 16.5t-39 41.5q-12 20 -0.5 36t51.5 29q28 9 41 51 q28 89 106 323t111 335q4 17 0.5 20.5t-15.5 -4.5q-105 -61 -116 -61q-25 0 -37 18q-20 24 14 51q59 48 166 90q20 9 25 21q27 63 57 63q27 0 61 -51q6 -8 11 -10t20 -2q59 0 141.5 -35t116.5 -80q39 -50 39 -123z" />
<glyph unicode="Q" horiz-adv-x="899" d="M764 961h2q30 0 47 -17q4 -6 29 -6q62 0 115 -74t53 -149q0 -111 -57 -249t-152 -253q-34 -43 -120.5 -111t-127.5 -90q-22 -10 -26.5 -20t3.5 -27q32 -69 77 -133.5t102.5 -121.5t129 -91.5t144.5 -34.5q108 0 223.5 60.5t171.5 124.5q20 24 27 9q7 -17 -10 -40 q-70 -98 -191.5 -166t-251.5 -68q-165 0 -319 127q-71 60 -126 132t-83 122q-24 44 -27 66q-3 13 -8 18t-18 6q-65 5 -128 81t-63 184q0 135 72.5 280.5t155.5 233.5q75 81 181.5 144t174.5 63zM299 221v-2q0 -101 70 -145q24 -15 45 -4q21 9 43 6q49 -3 127 53 q46 33 102.5 106t106.5 164q45 84 68.5 180t23.5 156q0 102 -56 121q-19 6 -26 -8q-7 -17 -37 -14q-138 18 -272 -146q-82 -102 -138.5 -231.5t-56.5 -235.5z" />
<glyph unicode="R" horiz-adv-x="1007" d="M915 725v-2q0 -145 -290 -274q-32 -13 -17 -39q43 -67 127 -182t111 -142q59 -61 125 -61q22 0 51.5 13.5t50.5 29.5q17 17 19 3q2 -10 -7 -28q-23 -38 -70.5 -66t-96.5 -28q-58 0 -113 38t-129 132q-23 28 -66 88.5t-76.5 109t-39.5 54.5q-18 18 -45 18q-18 0 -27 -29 q-57 -145 -86 -247q-4 -13 0 -19.5t20 -9.5q84 -20 97 -31q17 -14 -13 -30q-39 -23 -121 -27q-25 -4 -38 -10q-19 -15 -43 -15t-56.5 17t-42.5 37q-16 29 4 43q23 17 60 24q8 1 13 5t7.5 9t7.5 17q75 218 84 246q5 14 0 32q-10 26 -2 45q9 22 27 29q14 6 25 33q12 27 24 60 t37 103t55 150q5 13 2.5 18t-12.5 5q-70 -10 -96 -47q-24 -29 -41 -35q-24 -7 -41 10q-19 16 -27 35q-12 30 29 59q56 41 199 60q15 1 21.5 6.5t12.5 19.5q20 52 50 52q24 0 51 -19q21 -18 18 -45q-1 -2 0 -4t4.5 -3t10.5 -1q80 -3 143 -36t92 -87q18 -37 18 -84zM803 713v2 q0 58 -51.5 95.5t-116.5 39.5q-22 0 -33 -25q-19 -37 -62.5 -149t-60.5 -162q-9 -27 4 -27t57.5 15t96.5 41q67 34 116.5 84t49.5 86z" />
<glyph unicode="S" horiz-adv-x="602" d="M780 965h2q27 0 43 -19q14 -24 6 -53q-26 -65 -94 -62q-72 5 -94 3q-80 -14 -134 -69t-54 -130q0 -74 47 -201q49 -133 49 -221q0 -87 -76 -156q-42 -35 -111 -55t-135 -20q-80 0 -125 20q-38 18 -38 51q0 27 20 45q14 14 34 18.5t40 -5.5q65 -43 125 -43q57 0 103 38.5 t46 106.5q0 73 -53 203q-45 112 -45 178q0 93 83.5 185t237.5 153q83 33 123 33z" />
<glyph unicode="T" horiz-adv-x="1058" d="M838 956h2q20 0 51 -43q13 -18 41 -20q96 -8 203 -8q6 0 12.5 1.5t11 2.5t9.5 4.5t8 5.5t8 7l6.5 6.5t6 7t5.5 6.5q13 16 29 16q26 0 50 -29t24 -63q0 -27 -23.5 -49.5t-52.5 -22.5q-12 0 -68 25q-30 12 -61 10q-66 -2 -189 2q-21 0 -34 -31q-35 -93 -124 -334t-124 -329 q-5 -12 -2 -15.5t14 -3.5q96 -5 156 -20q23 -6 23 -16.5t-19 -20.5q-47 -29 -213 -35q-20 0 -37 -10q-71 -47 -96 -47q-21 0 -41.5 17.5t-20.5 39.5q0 57 101 84q22 3 30 31q24 57 60 163t85.5 258.5t78.5 237.5q4 15 2 20t-13 5q-84 14 -262 10q-61 -1 -89.5 -22.5 t-41.5 -65.5q-4 -16 -15 -15t-18 19q-24 71 0 117q39 63 193 63q85 0 258 -14q23 -3 33 14q20 41 43 41z" />
<glyph unicode="U" horiz-adv-x="1089" d="M1118 946h2q13 0 30.5 -20t25.5 -37q13 -28 -15 -76q-73 -123 -124.5 -284.5t-73.5 -338.5q-3 -26 3 -31t31 11q89 52 154 70q29 7 29.5 -8t-21.5 -27q-55 -33 -131.5 -107t-107.5 -112q-15 -21 -31 -21q-21 0 -37 8q-45 21 -25 125q8 48 44.5 190.5t54.5 203.5 q6 16 -3 16q-8 0 -18 -14q-1 -1 -43.5 -48t-104.5 -111t-120 -118q-139 -129 -221 -174q-72 -43 -129 -43q-33 0 -54 12q-24 14 -24 58q-2 19 6 61q25 145 70 283t123 336q25 63 18 116q-3 18 3 29t24 25q54 47 90 47q22 0 33.5 -28.5t-5.5 -72.5q-142 -304 -209 -553 q-11 -42 -15 -74t-2.5 -49.5t7.5 -28.5t12 -14.5t13 -3.5q42 0 108 50q92 66 172 146.5t211 231.5q111 124 142 207q29 77 55 127q25 41 53 41z" />
<glyph unicode="V" horiz-adv-x="1011" d="M416 958h2q26 0 47 -30q34 -43 12 -109q-31 -85 -47.5 -204.5t-13.5 -215.5q3 -122 20 -170q10 -26 31 4q35 46 131 132t220.5 189.5t158.5 133.5q78 70 96 135q17 69 23 103q8 43 47 43q28 0 54 -27.5t26 -69.5q0 -51 -76 -135q-85 -90 -399 -370q-253 -223 -273 -351 q-4 -20 -25 -35.5t-36 -15.5q-32 0 -56 66q-44 132 -48 340t30 346q5 19 -5 44.5t-5 47.5q14 61 38 105t48 44z" />
<glyph unicode="W" horiz-adv-x="1409" d="M446 950h3q28 0 36.5 -37t-8.5 -98q-49 -164 -61 -420q-6 -76 0 -137q3 -35 28 -6q44 53 196.5 216.5t168.5 182.5q51 53 59 127q10 59 34.5 100.5t58.5 41.5q25 0 60.5 -27t35.5 -53q0 -21 -17 -35q-17 -10 -39 -35q-25 -31 -39 -79.5t-14 -155.5q-4 -173 15 -304 q2 -10 4.5 -14t7.5 -3t12 7t17 17q67 80 226 246.5t167 174.5q78 92 78 134q0 40 -21 63q-24 29 23 76q37 37 69 37q31 0 48.5 -29t17.5 -61q-3 -72 -66 -158q-32 -47 -71.5 -96.5t-64 -77t-98 -109.5t-108.5 -121q-178 -199 -203 -294q-9 -43 -49 -43q-57 0 -78 118 q-30 180 -30 332q0 26 -4 80q0 21 -8 22.5t-25 -14.5q-41 -35 -175.5 -188.5t-174.5 -212.5q-24 -39 -29 -72q-4 -21 -12 -31.5t-25 -23.5q-9 -6 -22 -6q-19 0 -39 22.5t-21 54.5v37q0 123 1 191t7 178.5t19 212.5q11 85 4 154q-6 43 29 75q52 41 77 41z" />
<glyph unicode="X" horiz-adv-x="1034" d="M440 965h2q24 0 40.5 -10t35.5 -37q30 -47 60.5 -104t59 -115t34.5 -70q8 -13 26 0q43 36 87.5 75t83 75t66 61.5t55.5 53t32 30.5q31 28 59 28t56 -18t32 -41q7 -30 -47 -51q-44 -17 -154.5 -103.5t-226.5 -189.5q-22 -19 -4 -49q17 -31 88 -173.5t78 -156.5 q24 -43 43 -29q28 17 47 2q10 -7 19.5 -22t9.5 -31q0 -35 -51 -72q-46 -32 -74 -32q-38 0 -72 73q-21 49 -88 192t-92 187q-10 17 -31 2q-27 -22 -156.5 -137t-133.5 -119q-20 -23 -25.5 -36t0.5 -27q8 -37 -29 -68q-106 -92 -161 -92q-19 0 -34.5 15t-15.5 36q0 29 47 74 q80 81 184 178.5t189 174t94 85.5q20 20 13 39q-98 200 -170 268q-33 27 -66 50q-9 7 -2 22.5t27 30.5q36 31 65 31z" />
<glyph unicode="Y" horiz-adv-x="878" d="M1092 881v-2q0 -42 -76 -101q-191 -146 -283 -227q-75 -65 -112 -111t-56 -98q-19 -54 -45 -203q-3 -20 1 -27t18 -10q58 -9 100.5 -25t42.5 -30q0 -25 -102 -29q-119 -5 -150 -36q-14 -17 -39 -17q-21 0 -42 10.5t-30 24.5q-14 12 -3.5 38t49.5 44q20 11 27 19t11 30 q27 100 43 176q20 100 5 160q-6 26 -26 85t-48.5 140.5t-44.5 130.5q-31 95 33 133q28 21 67 21q29 0 23 -49q-9 -56 21 -188.5t63 -204.5q10 -16 26 0q35 31 169.5 129.5t162.5 123.5q63 57 68 138q1 20 12.5 33.5t26.5 13.5q33 0 60.5 -29t27.5 -63z" />
<glyph unicode="Z" horiz-adv-x="1105" d="M475 942h2q79 3 185 -16q212 -39 299 -43q41 0 59 24q6 6 16 18.5t16 18.5t14 11.5t15 5.5q41 0 41 -66q0 -46 -22 -74q-12 -28 -33 -28q-18 0 -49 -39q-133 -146 -298.5 -311t-287.5 -269q-29 -29 -6 -35q61 -9 225 -55q151 -41 246 -41q113 0 127 100q4 28 27 45 q40 27 71 -4q29 -29 29 -55q0 -55 -133 -131q-38 -20 -94.5 -33.5t-98.5 -13.5q-73 0 -262 46t-233 54q-52 11 -94 -47q-10 -18 -31 -18q-14 0 -35 24q-29 37 -4 80q14 21 38.5 38t37.5 19q20 2 94 64q277 243 561 557q28 28 0 31q-105 8 -246 26q-129 17 -178 15 q-47 0 -84 -17.5t-55 -37t-43 -54.5q-21 -41 -33 -41q-14 0 -6 47q16 83 78.5 144t144.5 61z" />
<glyph unicode="[" horiz-adv-x="620" d="M582 1049h2q100 0 166 -5q36 -4 55.5 -16.5t19.5 -26.5q-4 -18 -30 -18q-10 -2 -91 -8.5t-98 -9.5q-32 -5 -59.5 -35t-52.5 -107q-20 -57 -82.5 -268t-77.5 -258q-101 -313 -119 -399q-8 -34 -9.5 -59t2.5 -39t14 -23t19.5 -12.5t24.5 -6.5l64 -14q79 -8 110 -35 q15 -18 -6 -31q-12 -9 -45 -6q-60 6 -151 6q-61 0 -119 -4q-20 -1 -29 20t-4 48q2 10 7.5 29.5t6.5 29.5q4 47 29 131q7 24 39 127t67 220t62 219q30 106 54 182t45 138t24 73q30 97 67 131q27 27 95 27z" />
<glyph unicode="\" horiz-adv-x="706" d="M354 985h2q20 0 30.5 -21t10.5 -53q-3 -51 15 -116q104 -393 192 -684q50 -167 72 -211q24 -50 22 -70q-2 -17 -18 -28t-41 -11q-31 0 -49.5 20t-32.5 64q-11 36 -51.5 197.5t-67.5 257.5q-111 405 -153 522q-13 43 -7 70t23 43q17 20 53 20z" />
<glyph unicode="]" horiz-adv-x="638" d="M707 1044h2q27 0 39 -7t24 -25q9 -15 9 -32t-9 -58q-14 -74 -70 -232q-156 -423 -239 -745q-11 -43 -17 -85t-7.5 -65.5t-0.5 -30.5q4 -43 -14 -59q-27 -21 -43 -37q-26 -26 -76 -26q-38 0 -115 14t-98 22q-29 10 -12 33q9 15 43 15q119 -6 166 6q39 7 43 43 q13 120 65 291q95 314 238 712q24 70 28.5 107.5t-7 53.5t-42.5 19q-38 6 -170 9q-20 1 -29.5 2.5t-15.5 5.5t-6 12q0 24 74 33q165 24 240 24z" />
<glyph unicode="^" horiz-adv-x="786" d="M596 967h2q17 0 37 -23q17 -14 20 -57q0 -51 82 -252q48 -103 82 -146q27 -42 27 -55q0 -17 -21.5 -37t-38.5 -20q-30 0 -90 110q-19 40 -54.5 121.5t-47.5 114.5q-16 45 -25 45q-2 0 -4 -1t-4.5 -3.5l-5.5 -5.5t-7.5 -8t-8 -9.5t-9.5 -12t-10.5 -13.5t-12 -15.5 t-13.5 -17.5q-13 -17 -100 -135t-101 -133q-24 -27 -43 -27q-9 0 -22.5 12t-18.5 23q-10 24 18 59q11 17 150.5 197.5t150.5 198.5q23 38 29 53q4 14 16.5 25.5t22.5 11.5z" />
<glyph unicode="_" horiz-adv-x="1024" d="M0 -256v102h1024v-102h-1024z" />
<glyph unicode="`" horiz-adv-x="761" d="M442 1087h2q33 0 50 -38q13 -24 38.5 -77t36.5 -71q8 -15 18.5 -33.5t16.5 -30t8 -18.5q6 -19 -7.5 -24t-33.5 8q-38 28 -87.5 78.5t-84.5 99.5q-24 40 -6 74q7 13 22 22.5t27 9.5z" />
<glyph unicode="a" horiz-adv-x="776" d="M561 721h2q22 0 53 -41q4 -15 19 -4q20 14 39 2q37 -22 18 -60q-100 -221 -100 -370q0 -160 61 -160q58 0 156 98t188 222q6 9 13.5 12.5t12.5 0.5t5 -11q0 -28 -18 -72q-59 -116 -190 -236t-208 -120q-38 0 -74 43t-42 104q-7 75 -7 123q0 20 -16 4q-24 -32 -92 -106 t-107 -107q-70 -61 -118 -61q-23 0 -54.5 25.5t-31.5 74.5q0 80 77 223q43 85 111 177t139 153q95 86 164 86zM506 610h-2q-43 0 -127 -104q-66 -78 -112 -169t-64 -159q-9 -29 -3.5 -49t25.5 -20q22 0 86 57q52 49 154 186q11 16 28 46t31.5 59t16.5 32q16 40 10 76 q-7 45 -43 45z" />
<glyph unicode="b" horiz-adv-x="673" d="M670 723h2q44 0 70 -43.5t26 -81.5q0 -111 -113 -285q-52 -76 -131.5 -153t-138.5 -113q-44 -28 -97 -46.5t-83 -18.5q-27 0 -51.5 24t-24.5 45q-3 34 -14 47q-15 18 -9 49q4 31 57.5 210t94.5 284q133 338 148 371q28 65 34 123q3 30 31 55q39 39 72 39q23 0 28.5 -26 t-6.5 -66q-6 -21 -123 -297q-93 -220 -118 -303q-7 -21 -2 -23t20 16q120 108 170 138q92 55 158 55zM217 145v-2q0 -51 41 -51q50 0 154 78q91 69 168 201.5t77 189.5q0 24 -12 39.5t-35 15.5q-27 0 -76.5 -25.5t-97.5 -68.5q-109 -93 -166 -198q-50 -90 -53 -179z" />
<glyph unicode="c" horiz-adv-x="645" d="M567 721h2q41 0 65.5 -24.5t24.5 -53.5q0 -56 -61 -90q-34 -18 -49 -6q-17 14 -8 39q3 35 -31 35q-32 0 -82.5 -41.5t-87.5 -96.5q-96 -136 -96 -280q0 -60 28 -92.5t72 -32.5q105 0 249.5 93t244.5 200q12 13 22 14t14 -10q6 -22 -22 -64q-99 -130 -264.5 -229.5 t-292.5 -99.5q-32 0 -60.5 9.5t-55 30.5t-42.5 61t-16 95q0 79 37.5 179.5t115.5 191.5q64 73 147.5 122.5t145.5 49.5z" />
<glyph unicode="d" horiz-adv-x="862" d="M584 690h2q36 0 67 -16q12 -5 17.5 -3.5t9.5 11.5q36 88 84 210.5t78.5 198.5t42.5 101q14 37 37 37q21 0 41 -31q22 -34 4 -82q-6 -15 -34.5 -79.5t-65.5 -153t-68 -172.5q-100 -274 -115 -490q-6 -64 6.5 -96.5t38.5 -32.5q36 0 91 40.5t109.5 100.5t96.5 111.5 t68 89.5q10 15 20 15t10 -15q0 -32 -18 -69q-40 -74 -111.5 -159.5t-162.5 -152.5t-160 -67q-48 0 -70.5 49.5t-17.5 118.5q7 99 22 176q4 13 0 12t-12 -12q-54 -71 -129 -148.5t-113 -107.5q-59 -45 -114.5 -72t-79.5 -27q-30 0 -52 26t-22 87q0 80 57 209.5t146 226.5 q78 84 156.5 125t140.5 41zM545 602h-2q-46 0 -111.5 -59.5t-126.5 -149.5q-108 -162 -108 -248q0 -43 32 -43q25 0 69.5 28.5t98.5 84.5q71 72 138.5 167t80.5 146q11 32 -4 47q-22 27 -67 27z" />
<glyph unicode="e" horiz-adv-x="645" d="M129 176v2q0 67 35 161.5t92 180.5q25 38 60 80.5t84 83.5t83 41q20 0 31.5 -11t13.5 -26q0 -12 23 -18q36 -2 60 -28.5t24 -70.5q0 -46 -19 -93.5t-49 -80.5q-105 -116 -229 -116q-33 0 -55 18q-13 10 -21 -8q-14 -40 -14 -90q0 -60 28 -91.5t74 -31.5q106 0 254 95.5 t248 207.5q20 20 29 -2q6 -22 -23 -66q-100 -133 -261 -232t-294 -99q-33 0 -61.5 9.5t-55 30t-42 60.5t-15.5 94zM332 373h2q73 0 132.5 50t61.5 112q0 35 -16.5 55t-38.5 20q-37 0 -93 -75.5t-79 -141.5q-4 -10 3.5 -15t27.5 -5z" />
<glyph unicode="f" horiz-adv-x="374" d="M750 1204h2q38 0 57 -16q23 -23 -2 -62q-25 -36 -62 -36q-127 1 -225.5 -110t-157.5 -318q-3 -13 0.5 -17t14.5 -2q183 16 330 59q34 11 32 -7q-1 -14 -24 -29q-71 -44 -188 -76.5t-179 -42.5q-12 -3 -16.5 -9t-9.5 -24q-4 -19 -38.5 -142t-45.5 -167q-94 -376 -197 -611 q-118 -268 -268 -319q-21 -8 -52 -8q-25 0 -38 10q-21 24 12 66q40 54 74 63q61 19 103 59.5t82 126t85 236.5q23 73 80 301.5t90 386.5q3 14 -1 18.5t-15 4.5q-34 3 -52 16.5t-18 26.5q0 9 8.5 19.5t20.5 16.5q25 14 75 17q13 0 21 22q102 299 278 437q65 52 125.5 81 t98.5 29z" />
<glyph unicode="g" horiz-adv-x="692" d="M647 723h2q57 0 86 -37.5t29 -73.5q0 -26 -17.5 -52.5t-48.5 -45.5q-13 -11 -8 -22q7 -18 0 -46q-11 -56 -51.5 -249t-42.5 -201q-86 -377 -293 -578q-54 -51 -137.5 -87t-136.5 -36q-40 0 -80 7q-33 10 -68 10q-33 0 -67.5 21t-34.5 46q0 26 33 54t63 28q25 0 64 -39 q48 -43 112 -43q66 0 143 54.5t142 150.5q58 86 93 187t67 245q30 128 45 263q2 16 -3 16q-6 0 -28 -25q-108 -127 -188 -192q-114 -92 -162 -92q-32 0 -53 35.5t-21 82.5q0 140 137 326q108 149 273 240q97 53 151 53zM217 168v-2q0 -19 6 -31t15 -12q11 0 26.5 8t34.5 23 t36 30.5t38 36.5t34 34.5t30 32t20 21.5q27 30 54.5 67t48.5 68.5t22 32.5q25 28 47 31q19 5 26 14q19 19 19 37q0 24 -21.5 37.5t-52.5 13.5q-61 0 -138 -51.5t-132 -120.5q-43 -57 -78 -136t-35 -134z" />
<glyph unicode="h" horiz-adv-x="882" d="M780 707h2q26 0 35.5 -17t-4.5 -51q-29 -61 -71.5 -180.5t-69.5 -225.5q-35 -143 18 -143q69 0 214 128.5t214 219.5q12 13 22.5 12.5t10.5 -14.5q0 -23 -23 -65q-43 -81 -142.5 -178t-202 -162.5t-156.5 -65.5q-27 0 -44 22.5t-23.5 81t13.5 160.5q25 132 74 275 q9 29 -1 33.5t-36 -15.5q-121 -93 -217.5 -198t-132.5 -166q-31 -52 -43 -105q-4 -33 -25 -53t-49 -20q-22 0 -28.5 41t2.5 90q5 37 60 232t106 351q45 136 103.5 274t94.5 195q46 82 76 82q24 0 45 -33q9 -13 13 -22.5t2 -22t-13 -26.5q-171 -240 -321 -793q-4 -22 1 -25.5 t19 11.5q35 39 146 143t172 154q71 53 98 64q29 12 61 12z" />
<glyph unicode="i" horiz-adv-x="493" d="M475 1079h2q31 0 48 -16t10 -43q-19 -76 -15 -152q1 -20 -11 -23.5t-32 7.5q-43 22 -53 70q-8 27 -8 79q3 46 17 62t42 16zM217 -25h-2q-43 0 -82 72q-29 59 -8 123q36 130 80 246q9 27 12 47q3 26 16 59q28 60 79.5 128.5t80.5 68.5q14 0 25 -14q12 -11 14.5 -31.5 t-12.5 -50.5q-51 -85 -103.5 -208.5t-83.5 -226.5q-26 -100 31 -100q51 0 142 62t168 133t157 155q9 9 16.5 11.5t12 -1.5t4.5 -14q0 -24 -23 -61q-66 -99 -196 -211.5t-219 -151.5q-71 -35 -109 -35z" />
<glyph unicode="j" horiz-adv-x="327" d="M449 1141h2q11 0 34 -45q2 -2 3 -3.5t1.5 -4.5t0.5 -5t-0.5 -6.5t-1 -7t-1.5 -8.5t-2 -10q-3 -14 -8 -62.5t-8 -60.5q0 -17 -16 -34t-33 -17q-12 0 -27 31.5t-18 58.5q-8 37 -8 88q0 28 34 59q30 27 48 27zM-158 -539h2q5 0 15.5 5.5t27 22t29.5 38.5q45 72 87 181.5 t112 350.5q19 64 44.5 151t39 131.5t26.5 93t19 79.5q19 83 33.5 119.5t37.5 56.5q33 33 88 33q25 0 34 -23.5t-5 -42.5q-47 -61 -86 -176q-25 -72 -111.5 -367t-111.5 -370q-76 -227 -199 -328q-53 -43 -100 -43q-21 0 -54.5 17t-62.5 43q-26 24 -40.5 51.5t-14.5 42.5 q2 19 15.5 33t31.5 14q32 0 72.5 -33t46.5 -59q6 -21 24 -21z" />
<glyph unicode="k" horiz-adv-x="804" d="M780 721h2q26 0 47 -21q14 -17 11 -32.5t-25 -38.5q-16 -12 -55 -15q-50 -3 -116.5 -43.5t-106.5 -77t-70 -69.5q-17 -21 -19 -35t11 -45q20 -45 55.5 -104.5t84.5 -114.5t83 -55q116 0 289 249q10 13 21.5 14.5t15.5 -9.5q5 -22 -19 -66q-74 -133 -173.5 -210 t-170.5 -77q-35 0 -77 30.5t-79 86.5l-106 168q-23 32 -41 34t-41 -22q-39 -42 -57.5 -87.5t-26.5 -110.5q-6 -34 -32 -57t-52 -23t-31 39q-3 34 17 118q2 7 17 63.5t28 103t34 119t48.5 155t58.5 166.5q102 281 184 413q38 60 70 60q27 0 49 -25q22 -31 0 -63 q-91 -125 -181.5 -353.5t-139.5 -406.5q-4 -20 1 -22t17 12q208 208 316 280q107 72 159 72z" />
<glyph unicode="l" horiz-adv-x="468" d="M123 113v2q0 28 12 91t51.5 191t98.5 271q182 452 245 530q16 19 33 19q19 0 29 -13q18 -21 21.5 -43t-3 -42t-22.5 -48q-123 -230 -210.5 -452t-125.5 -365q-43 -160 14 -160q54 0 197 114.5t246 235.5q9 10 16.5 7t7.5 -15q0 -30 -24 -69q-74 -109 -245 -247t-269 -138 q-32 0 -52 37.5t-20 93.5z" />
<glyph unicode="m" horiz-adv-x="1284" d="M756 721h2q26 0 40 -32.5t-3 -84.5q-15 -37 -66.5 -180t-60.5 -172q-6 -35 2 -43q12 -9 41 24q360 400 393 433q36 36 59 36q21 0 39.5 -24t18.5 -51q-2 -22 -33 -47q-29 -29 -41 -52q-22 -41 -46 -116.5t-38 -161.5q-15 -88 -3 -131t58 -43q125 0 381 332q24 27 35 6 q6 -19 -23 -68q-114 -183 -233 -276t-201 -93q-63 0 -99 63t-22 177q10 83 43 203q3 19 -3 19t-21 -17q-264 -300 -334 -373q-55 -55 -82 -55q-26 0 -30 55t18 131q5 23 21 75t34.5 110.5t22.5 72.5q13 41 0 49q-10 7 -37 -20q-10 -7 -31.5 -29.5t-51.5 -57.5t-60 -71.5 t-67 -81.5t-61.5 -75.5t-53.5 -66t-34 -42.5q-47 -53 -67 -53q-24 0 -39 36.5t-8 102.5q12 78 102 369q2 7 4 18.5t4 18.5q0 19 15 75q1 4 5 20.5t6.5 24t7 22t9 22t10.5 16t13.5 12.5t15.5 4q20 0 37 -20q48 -51 16 -113q-37 -70 -114 -348q-15 -50 1 -54q9 -3 23 15 q209 257 312 360q64 66 112 111q42 39 62 39z" />
<glyph unicode="n" horiz-adv-x="868" d="M371 752h2q24 0 43.5 -29.5t19.5 -54.5q0 -17 -18 -21q-26 -5 -53 -55q-21 -38 -50 -125.5t-43 -151.5q-3 -15 4 -18t17 10q47 65 145.5 163.5t149.5 137.5q70 53 94 64q24 10 39 37q23 30 39 30q22 0 41 -26q24 -28 2 -80q-3 -6 -27 -43t-35 -62q-64 -139 -96 -272 q-19 -75 -13.5 -120.5t23.5 -65t47 -19.5q34 0 86 35.5t108.5 92.5t105 113.5t92.5 113.5q9 12 17 13.5t11 -7.5q11 -23 -20 -68q-129 -204 -243 -296.5t-202 -92.5q-72 0 -106.5 80.5t-3.5 222.5q20 99 61 215q15 44 8 51q-9 9 -45 -24q-124 -109 -214.5 -227t-141.5 -212 q-34 -61 -59 -61q-19 0 -39 27q-15 17 2 90q43 192 89 341.5t77 209.5q25 51 44.5 67.5t41.5 16.5z" />
<glyph unicode="o" horiz-adv-x="624" d="M106 111v2q0 91 60 231q21 42 66 110.5t65 94.5q2 3 6.5 10.5t6.5 10.5t5 8.5t4 9.5t2 10t1 12q3 38 28 60q15 18 51 18q22 0 45 23q21 30 60 30q53 0 53 -51q0 -24 10 -31q101 -72 101 -213q0 -47 -31.5 -127.5t-77.5 -136.5q-79 -100 -172.5 -152.5t-171.5 -52.5 q-38 0 -74.5 41.5t-36.5 92.5zM225 145v-2q0 -30 15 -48.5t39 -18.5q66 0 129 63q55 54 106 151t51 165q0 137 -80 137q-19 0 -38 -16t-50 -54q-59 -68 -115.5 -180.5t-56.5 -196.5z" />
<glyph unicode="p" horiz-adv-x="753" d="M659 705h3q27 0 47 -29.5t28 -60t8 -50.5q-1 -83 -37.5 -167.5t-68.5 -129.5q-9 -12 -6 -15.5t20 3.5q67 26 189 108.5t186 149.5q23 23 29 4q7 -24 -23 -65q-67 -89 -211.5 -187t-247.5 -137q-47 -19 -108 -61q-33 -21 -104 -51.5t-101 -36.5q-28 -6 -45 -3 q-13 3 -31 25q-14 11 -22 -14q-5 -11 -77 -216.5t-79 -228.5q-12 -40 15 -51q35 -12 149 -6q45 3 45 -12q-5 -23 -57 -41q-46 -16 -122.5 -37t-105.5 -21q-30 0 -45 25q-18 27 4 78l13 35q12 35 26 76.5t35.5 105.5t45.5 137.5t49.5 155.5t53 176.5t52.5 185.5 q24 91 44.5 170t22.5 88q20 75 43 107q18 26 43.5 41.5t47.5 15.5q29 0 49 -27q17 -20 -6 -43q-34 -29 -58.5 -79.5t-52.5 -151.5q-6 -19 1.5 -21.5t18.5 9.5q52 61 122 121.5t139 95.5q57 29 79 29zM584 580h-2q-33 0 -107 -62q-111 -94 -173 -184t-97 -199 q-7 -23 -1.5 -35t29.5 -12q20 0 66.5 14.5t91.5 36.5q73 36 115 90q45 63 85.5 148t41.5 147q0 56 -49 56z" />
<glyph unicode="q" horiz-adv-x="718" d="M709 721h2q15 0 27.5 -6.5t18 -12t15.5 -18.5q9 -15 5.5 -38.5t-15.5 -37.5q-16 -20 -21 -82q-9 -91 -71 -297q-112 -342 -166 -473q-12 -33 -13 -53t3.5 -26.5t17.5 -18.5q31 -24 -6 -70q-26 -34 -68.5 -113t-66.5 -141q-8 -23 -20.5 -34t-24.5 -11t-20 12.5t-10 39.5 t7 69q7 35 46.5 153t93 272.5t73.5 217.5q25 80 45.5 147.5t22.5 73.5q10 43 -2 43q-9 0 -50 -41q-146 -170 -268 -253q-66 -41 -112 -41q-31 0 -54.5 49.5t-17.5 120.5q6 88 75 199.5t171 195.5q96 80 197.5 127t185.5 47zM182 160v-2q0 -20 7.5 -36t23.5 -16q36 0 123 76 q119 112 194 205t99 148q19 43 6 59q-8 12 -33 12q-52 0 -124 -47t-146 -131q-72 -87 -111 -160t-39 -108z" />
<glyph unicode="r" horiz-adv-x="571" d="M680 725h2q31 0 47.5 -21.5t11.5 -50.5q-6 -40 -39 -73q-26 -29 -47 -11q-29 19 -47 19q-20 0 -46 -24.5t-70 -76.5q-138 -162 -277 -462q-16 -39 -47 -39q-28 0 -47 28q-19 24 0 72q24 59 55 206t49 257q14 98 37 121q47 53 70 53q20 0 33.5 -22.5t11.5 -43.5 q0 -15 -19 -53q-20 -38 -42 -118t-29 -128q-2 -15 0 -19.5t7.5 -1t14.5 16.5q126 189 228 285q86 86 143 86z" />
<glyph unicode="s" horiz-adv-x="477" d="M520 717h2q45 0 72 -15q33 -20 33 -45q0 -36 -64 -36q-86 0 -170 -59t-84 -120q0 -54 51 -120q76 -109 76 -177q0 -27 -15 -56t-36 -44q-58 -46 -137 -76q-40 -16 -70 -16q-25 0 -52 14t-30 37q4 24 21 39q36 36 61 47q25 8 41 -2q33 -15 64 -8q19 3 34 16t15 29 q0 41 -39 100q-61 93 -72 119q-20 42 -20 82q0 51 37 109.5t88 101.5q41 35 95.5 57.5t98.5 22.5z" />
<glyph unicode="t" horiz-adv-x="544" d="M303 90h2q91 0 268 117q22 15 27 -1q4 -15 -10 -32q-108 -108 -293 -178q-36 -14 -74 -14t-76 29t-38 77q0 35 24 100q7 19 31 93t46 138.5t30 82.5q4 14 1 18t-16 2q-15 -1 -51 -5t-41 -5q-25 -3 -43 12q-10 9 -8.5 23.5t12.5 25.5q19 21 56 29q56 11 106 16q26 5 35 27 q4 9 44.5 121.5t51.5 138.5q8 23 33 43.5t47 20.5q21 0 33 -23q19 -32 0 -72q-24 -48 -46.5 -98.5t-37.5 -88t-15 -38.5q-5 -8 -1 -11.5t8 -4t14 -0.5q19 1 86 4.5t138 6.5t122 3q26 0 24 -15q-3 -16 -27 -26q-5 -3 -11 -4q-103 -27 -369 -61q-18 -3 -24.5 -7.5t-12.5 -19.5 q-29 -73 -60 -171t-40 -150q-9 -54 4.5 -78.5t50.5 -24.5z" />
<glyph unicode="u" horiz-adv-x="923" d="M729 98h2q55 0 182 107t246 235q12 12 20.5 11t10.5 -15q4 -30 -29 -69q-181 -228 -375 -342q-77 -43 -131 -43q-39 0 -56 46t1 150q7 48 43 174q5 17 -0.5 19t-17.5 -13q-77 -104 -180 -197.5t-181 -142.5q-51 -30 -88 -30q-23 0 -42 34t-19 82q0 73 65 244 q34 98 81.5 197t74.5 139q17 33 43 33q24 0 42.5 -18t18.5 -44q0 -18 -22.5 -59.5t-40.5 -67.5q-34 -43 -45 -65q-32 -66 -74 -197q-17 -45 -20 -76t5.5 -44t24.5 -13q37 0 87.5 45.5t156.5 163.5q24 28 49.5 61.5t45 60t43 61.5t36 54t31.5 48.5t22 34.5q40 65 66 65 q23 0 41 -26.5t8 -51.5q-4 -13 -29 -65q-75 -153 -118 -365q-26 -121 22 -121z" />
<glyph unicode="v" horiz-adv-x="729" d="M690 719h2q30 0 46 -33t20 -70q0 -17 16 -30q42 -27 127 -27q124 0 197 59q21 14 21 -4q-1 -17 -15 -36q-43 -46 -108.5 -71.5t-137.5 -25.5q-58 0 -102 11q-14 5 -23 -19q-68 -147 -188.5 -274t-222.5 -183q-63 -32 -119 -32q-29 0 -55 36t-19 109q14 127 88 317 q3 5 5 12.5t4 16.5t3 14q7 26 9 41q17 64 44.5 119.5t59.5 55.5q20 0 31.5 -36.5t11.5 -78.5q-2 -35 -35 -96q-61 -110 -100 -267q-29 -125 24 -125q34 0 78 33q80 58 167 164t124 205q8 22 -4 37q-33 33 -33 84q0 29 29 61.5t55 32.5z" />
<glyph unicode="w" horiz-adv-x="1095" d="M1040 723h2q30 0 52.5 -32.5t31.5 -63.5q5 -19 23 -29q28 -18 89 -19.5t131.5 17.5t113.5 55q20 15 23 -1q4 -16 -17 -40q-62 -69 -170.5 -94.5t-185.5 -9.5q-13 3 -19 -17q-20 -56 -49 -114q-52 -99 -148 -210t-174 -155q-60 -35 -92 -35q-36 0 -59.5 49t-20.5 132 q3 97 27 170q7 25 -4 23q-9 -1 -27 -19q-197 -197 -256 -267q-75 -81 -129 -81q-42 0 -59 67q-22 85 31 223q72 198 149 361q23 52 68 74q24 8 37 8q17 0 29 -19t12 -43q0 -30 -31 -73q-5 -6 -19.5 -23.5t-26 -32.5t-20.5 -30q-71 -131 -110 -269q-16 -72 4 -86q15 -9 61 31 q18 19 132.5 143.5t162.5 175.5q83 83 100 140q10 32 46 55q27 19 47 6q17 -8 24 -26q16 -26 -6 -62q-43 -67 -80 -163t-51 -187q-22 -141 29 -141q41 0 120 79q45 49 104.5 143.5t82.5 176.5q8 31 -8 45q-49 45 -49 92q0 31 23.5 53.5t55.5 22.5z" />
<glyph unicode="x" horiz-adv-x="806" d="M807 713h2q37 0 53 -33q37 -54 37 -113q0 -23 -6.5 -39t-18.5 -16q-25 0 -51 39q-25 39 -51 39t-90 -62.5t-119 -130.5q-35 -38 -26 -65q13 -37 43.5 -95.5t54.5 -93.5q20 -27 44 -46t40 -19q21 0 67.5 31.5t77.5 60.5q12 11 16.5 5.5t2.5 -21.5q0 -24 -29 -56 q-32 -38 -87.5 -79.5t-98.5 -41.5q-25 0 -61 35t-64 82q-49 93 -86 158q-16 28 -39 8q-1 -1 -14 -13.5t-18.5 -18.5t-18.5 -20t-21.5 -25t-19 -25.5t-19 -29.5t-14.5 -30q-7 -30 -41 -41q-27 -12 -62 -47q-79 -88 -110 -88q-22 0 -39 23q-21 28 6 65q48 71 78 101 q33 38 70 41q34 6 53 32q127 146 131 152q18 29 16 43q-13 35 -61 137q-18 37 -41 31q-29 -13 -53.5 -14t-36.5 6.5t-13 17.5q0 28 43 47q46 28 56 58q5 18 20.5 32.5t36.5 14.5q41 0 64 -31q14 -25 10 -62q-5 -53 45 -139q22 -42 53 -8q50 53 187 190q54 54 102 54z" />
<glyph unicode="y" horiz-adv-x="616" d="M158 215l12 274q2 38 -4 72q-8 35 6 66q1 3 7 15t9.5 18.5t10.5 18t12.5 18t12 14t14 11t14.5 3.5q26 0 33.5 -55.5t3.5 -112.5q-2 -36 -15.5 -161t-15.5 -158q-4 -52 8 -80.5t29 -28.5q33 0 93.5 74t139.5 219q46 80 41 119q-4 39 13 67q5 9 49 90q18 37 45 37 q15 0 33 -26t18 -52q0 -45 -39 -131q-30 -68 -109.5 -204t-142.5 -213q-274 -334 -407 -525q-15 -23 -4 -26q34 -9 34 -33q0 -40 -145 -115q-40 -16 -61 -51q-25 -39 -45 -57.5t-44 -18.5t-34.5 14.5t-3.5 38.5q10 44 57 107q46 60 84 74q23 9 33 28q12 24 53.5 86.5 t85.5 116.5q22 27 110 143t109 142q8 8 7 9.5t-11 -1.5q-27 -8 -45 -8q-28 0 -40 42.5t-11 139.5z" />
<glyph unicode="z" horiz-adv-x="837" d="M686 80h2q33 0 65.5 8.5t56 19.5t49.5 32t40.5 35t35 39.5t27 34.5t21.5 32q8 14 17.5 15.5t12.5 -8t-3 -24.5q-18 -41 -46.5 -83.5t-71.5 -89t-103 -76t-125 -29.5q-66 0 -134 30.5t-186 100.5q-26 13 -47 -11q-36 -39 -113 -110q-27 -18 -45 -4q-16 16 -16 31 q0 13 11 34t23.5 37.5t29.5 37.5t20 26q12 12 12 41q0 33 19 57.5t41 26.5q16 0 38 -19q14 -9 31 8q63 70 258 275q28 28 -6 31q-210 16 -215 16q-32 0 -47 -27q-23 -45 4 -118q7 -18 -1.5 -22.5t-23.5 3.5q-13 6 -38.5 37.5t-36.5 54.5q-26 49 8 88q27 29 40.5 42t35 23.5 t45.5 10.5q48 0 174 -18q104 -11 131 -11q33 0 53 15q32 16 45 16q41 0 76 -35q6 -6 8.5 -13t3.5 -12t-0.5 -12.5t-2 -10.5t-4 -10.5t-3.5 -8.5q-15 -23 -31 -23q-3 0 -17 1t-20 1q-35 0 -100 -61q-39 -39 -124 -129t-126 -139q-15 -17 -16 -26.5t10 -16.5q49 -40 125 -76.5 t133 -36.5z" />
<glyph unicode="{" horiz-adv-x="634" d="M741 1063h2q23 0 54 -27q18 -15 -9 -53q-40 -47 -75 -33q-27 14 -54 11q-31 0 -64.5 -34t-49.5 -77q-10 -25 -17 -63t-14 -104t-10 -85q-21 -184 -133 -215q-16 -3 -20.5 -9t3.5 -14q62 -74 56 -147q-9 -89 -107 -238q-92 -143 -96 -192q-3 -34 15.5 -58t49.5 -24 q16 0 59 11.5t56 11.5q23 0 37 -10.5t14 -22.5q-4 -16 -20 -25q-31 -16 -99 -29.5t-110 -13.5t-68 23q-19 12 -30.5 44t-8.5 62q3 55 35 125q11 27 29.5 60t47 79t40.5 66q43 76 47 141q3 32 -10 61t-39 42q-10 6 -39 6q-17 -3 -29 8t-12 25q0 25 32.5 45t63.5 20 q57 4 88 35q18 20 30.5 80.5t14.5 128.5q7 141 74 233q60 81 154 125q63 31 112 31z" />
<glyph unicode="|" horiz-adv-x="368" d="M356 -512h-98v2048h98v-2048z" />
<glyph unicode="}" horiz-adv-x="647" d="M600 1061h2q49 0 88 -37t39 -88q-3 -71 -125 -272q-69 -118 -78 -201q-2 -21 1 -42t17.5 -38.5t39.5 -17.5q4 0 22 2t23 2q22 0 37.5 -21t15.5 -43q-2 -29 -47 -29q-40 0 -71.5 -9t-52.5 -22t-36.5 -38t-23.5 -45.5t-13 -56.5t-6.5 -59.5t-3.5 -65.5q-4 -100 -56 -180.5 t-118 -121.5q-38 -26 -96 -45.5t-95 -19.5q-28 0 -47.5 17.5t-19.5 37.5q0 18 23 41t47 23q11 0 34.5 -9.5t38.5 -9.5q63 0 118.5 77t59.5 194q5 102 17 151q7 43 30.5 75.5t44 47.5t52.5 31q18 10 21.5 14.5t-5.5 11.5q-23 13 -46.5 58t-20.5 80t20.5 82t29 70t49.5 88 t40 69q38 68 51 95.5t14 53.5q2 32 -18 51t-57 19q-54 0 -119 -25q-18 -6 -28 2t-1 25q18 26 60 41q79 37 149 37z" />
<glyph unicode="~" horiz-adv-x="964" d="M502 528h2q72 0 174 -86q82 -73 143 -73q38 0 68.5 34t42.5 91q6 30 30 39t37 -7q34 -34 15 -88q-26 -78 -84.5 -127t-124.5 -49q-82 0 -191 92q-80 64 -129 64q-39 0 -74 -38t-46 -89q-7 -24 -22.5 -32t-29 -2.5t-22.5 17.5q-25 31 2 93q70 161 209 161z" />
<glyph unicode="&#xa7;" horiz-adv-x="780" d="M494 750v-2q0 -43 41 -84q105 -112 165 -185q37 -45 54.5 -91.5t17.5 -78.5q0 -48 -14 -90t-38 -72.5t-44.5 -50t-45.5 -38t-28 -21.5q-20 -17 -20 -31q5 -24 2 -55q-7 -89 -94.5 -172t-170.5 -111q-74 -21 -112 -10q-29 9 -66 4q-33 -7 -58 7.5t-30 37.5q-4 24 -4 37 q-3 30 23 53q33 26 65 21t57.5 -21.5t24.5 -38.5q0 -8 6.5 -10t24.5 -2q28 0 72.5 18t78.5 52q76 73 76 121q0 33 -18 68t-74 91q-46 47 -67.5 71t-52 65.5t-43.5 81t-13 83.5q0 145 156 271q22 15 20 24q-2 10 -2 29q0 36 28 85t68 81q74 62 183 80q56 14 63 16 q27 12 59 12q31 0 52.5 -15.5t29.5 -33.5q15 -36 -12 -57q-22 -18 -45 -27q-37 -18 -59 4q-36 25 -62 25q-55 0 -124.5 -48t-69.5 -93zM309 451v-2q0 -76 62 -150q40 -51 147 -170q25 -25 45 -10q42 28 72.5 68.5t30.5 80.5q0 51 -52 123q-16 24 -55 68t-79.5 86t-41.5 43 q-15 18 -41 2q-22 -13 -55 -57.5t-33 -81.5z" />
<glyph unicode="&#xa9;" horiz-adv-x="1181" d="M725 944h2q91 0 178 -33t157 -92t112.5 -149.5t42.5 -196.5q0 -83 -42.5 -168.5t-112.5 -152.5t-167.5 -109.5t-200.5 -42.5q-121 0 -226.5 65t-167.5 175.5t-62 238.5q0 115 67 222.5t180.5 175t239.5 67.5zM711 864h-2q-162 0 -272.5 -119.5t-110.5 -285.5 q1 -90 53.5 -176.5t140 -141.5t182.5 -55q107 0 203.5 46.5t157.5 131t61 185.5q0 182 -114.5 298.5t-298.5 116.5zM782 717h2q32 0 54.5 -8.5t32 -22t13 -23.5t3.5 -18q0 -20 -29 -41q-17 -11 -39 0q-2 1 -16 7.5t-26.5 10t-26.5 3.5q-34 0 -84 -67.5t-50 -119.5 q0 -39 26 -67.5t65 -28.5q23 0 84 18q7 3 26.5 13t34 16t20.5 6q11 0 19 -7t8 -19q0 -30 -57 -66q-32 -23 -80.5 -38t-83.5 -15q-55 0 -108.5 48t-53.5 130q0 54 37.5 118t85.5 107q51 40 76 52t67 12z" />
<glyph unicode="&#xad;" horiz-adv-x="536" d="M586 422v-2q0 -23 -26 -50.5t-64 -37.5q-42 -12 -142.5 -39.5t-144.5 -40.5q-26 -6 -35 6q-11 14 10 45q27 50 113 74q37 13 136 38t126 25t27 -18z" />
<glyph unicode="&#xae;" horiz-adv-x="704" d="M561 967h2q137 0 216 -69t79 -198q0 -116 -97 -203t-214 -87q-106 0 -184 79.5t-78 194.5q0 105 89.5 194t186.5 89zM555 905h-2q-68 0 -134.5 -65t-66.5 -144q0 -88 56 -156.5t145 -68.5q95 0 167 67.5t71 166.5q0 96 -68.5 148t-167.5 52zM557 831h2q52 0 86.5 -17 t34.5 -54q0 -7 -1.5 -13.5t-5.5 -12.5t-7 -10t-9.5 -9t-9.5 -7t-10 -6.5t-8 -5.5q-6 -4 0 -14q17 -29 30 -41q14 -20 54 -41q6 -3 5.5 -8t-7.5 -8q-27 -11 -43 -11q-46 0 -95 62q-17 33 -38 33q-14 0 -17 -19q-13 -70 -18 -76q-11 -14 -33 -14q-16 0 -22 15.5t-1 37.5 q21 97 25 123q2 18 -4 53q-3 14 12 23q13 10 39 16q36 4 41 4zM569 786h-2q-14 0 -24 -6q-5 -2 -8 -18l-7 -43q0 -5 0.5 -7t3.5 -3.5t9 -1.5q20 0 43.5 13.5t23.5 35.5q0 9 -11 19.5t-28 10.5z" />
<glyph unicode="&#xb0;" horiz-adv-x="575" d="M537 967h2q81 0 140.5 -43.5t59.5 -135.5q0 -100 -85 -184t-189 -84q-65 0 -119.5 56t-54.5 133q0 88 78.5 173t167.5 85zM481 606h2q54 0 107 53.5t53 104.5q0 53 -28 85t-87 32q-56 0 -98.5 -44.5t-42.5 -105.5q0 -43 27.5 -84t66.5 -41z" />
<glyph unicode="&#xb6;" horiz-adv-x="892" d="M221 444v2q0 94 76.5 173.5t175.5 119.5q131 52 248 52q14 0 22 18q56 156 127 213q31 31 70 31q20 0 33.5 -12.5t13.5 -30.5q-3 -36 -31 -47q-18 -10 -49.5 -56.5t-52.5 -99.5q-10 -21 6 -21q79 -9 107 -28q13 -8 9 -25t-26 -31t-57 -10q-11 1 -31.5 7.5t-23.5 7.5 q-12 2 -17 -1t-8 -14q-66 -155 -135 -387q-3 -8 -3 -12.5t2.5 -6t8.5 -1.5q20 0 74 6.5t84 15.5q17 6 24 1.5t0 -17.5q-15 -24 -45 -39q-21 -12 -70.5 -27t-78.5 -20q-18 -1 -25.5 -6t-13.5 -19q-2 -7 -27.5 -81.5t-29.5 -92.5q-8 -34 18 -43q2 -2 7.5 -5.5t6.5 -5t5 -6.5 t2.5 -9t-1.5 -13q-8 -28 -43 -71q-51 -66 -88 -66q-17 0 -25 22.5t-3 53.5q5 38 86 307q8 25 -13 25q-132 0 -211 59q-98 69 -98 190zM467 455v-2q0 -62 28 -107t66 -53q13 -3 21 16q4 19 29.5 98.5t54.5 169t36 113.5q9 23 -6 23q-49 0 -110 -31q-52 -28 -85.5 -91.5 t-33.5 -135.5z" />
<glyph unicode="&#xb7;" horiz-adv-x="309" d="M285 438h2q30 0 57 -29t27 -55q0 -33 -40.5 -64.5t-82.5 -31.5q-23 0 -43.5 22.5t-20.5 47.5q0 34 33.5 72t67.5 38z" />
<glyph unicode="&#x2000;" horiz-adv-x="768" />
<glyph unicode="&#x2001;" horiz-adv-x="1536" />
<glyph unicode="&#x2002;" horiz-adv-x="768" />
<glyph unicode="&#x2003;" horiz-adv-x="1536" />
<glyph unicode="&#x2004;" horiz-adv-x="512" />
<glyph unicode="&#x2005;" horiz-adv-x="384" />
<glyph unicode="&#x2006;" horiz-adv-x="256" />
<glyph unicode="&#x2007;" horiz-adv-x="256" />
<glyph unicode="&#x2008;" horiz-adv-x="192" />
<glyph unicode="&#x2009;" horiz-adv-x="307" />
<glyph unicode="&#x200a;" horiz-adv-x="85" />
<glyph unicode="&#x2010;" horiz-adv-x="536" d="M586 422v-2q0 -23 -26 -50.5t-64 -37.5q-42 -12 -142.5 -39.5t-144.5 -40.5q-26 -6 -35 6q-11 14 10 45q27 50 113 74q37 13 136 38t126 25t27 -18z" />
<glyph unicode="&#x2011;" horiz-adv-x="536" d="M586 422v-2q0 -23 -26 -50.5t-64 -37.5q-42 -12 -142.5 -39.5t-144.5 -40.5q-26 -6 -35 6q-11 14 10 45q27 50 113 74q37 13 136 38t126 25t27 -18z" />
<glyph unicode="&#x2012;" horiz-adv-x="536" d="M586 422v-2q0 -23 -26 -50.5t-64 -37.5q-42 -12 -142.5 -39.5t-144.5 -40.5q-26 -6 -35 6q-11 14 10 45q27 50 113 74q37 13 136 38t126 25t27 -18z" />
<glyph unicode="&#x2013;" horiz-adv-x="999" d="M274 397h2q86 0 260 -2t261 -2q69 0 104 -4q30 -3 46 -17.5t16 -35.5q0 -17 -15 -28t-37 -11q-12 0 -86 4q-162 2 -471 2q-39 0 -59 -4q-36 -4 -43 -4q-22 0 -49 24q-15 15 -13 33t21 31q23 14 63 14z" />
<glyph unicode="&#x2014;" horiz-adv-x="1996" d="M301 399h2q86 0 736 -4t737 -4q24 0 56 -1t48 -1q29 -3 45.5 -18.5t16.5 -32.5q0 -16 -19 -29.5t-37 -13.5q-11 0 -40 2.5t-46 3.5q-158 4 -1425 4q-42 0 -60 -4t-39 -4q-20 0 -45 25q-31 37 7 61q23 16 63 16z" />
<glyph unicode="&#x2018;" horiz-adv-x="251" d="M352 723h-2q-31 0 -51 32.5t-20 73.5q0 54 36.5 110.5t92.5 88.5q64 41 96 41q33 0 33 -20q0 -9 -11 -19t-26 -16q-39 -18 -80 -55.5t-49 -73.5q-1 -9 4 -13t16 -4q25 -2 40 -16t15 -37q0 -33 -29.5 -62.5t-64.5 -29.5z" />
<glyph unicode="&#x2019;" horiz-adv-x="251" d="M451 1063h2q33 0 52 -30.5t19 -69.5q0 -130 -135 -213q-47 -33 -88 -33t-41 20q0 18 47 39q80 29 123 111q17 26 -8 26q-24 0 -43 15.5t-19 40.5q0 29 29.5 61.5t61.5 32.5z" />
<glyph unicode="&#x201c;" horiz-adv-x="489" d="M352 723h-2q-31 0 -51 32.5t-20 73.5q0 54 36.5 110.5t90.5 88.5q21 15 51 28t47 13q33 0 33 -20q0 -9 -11 -19t-26 -16q-39 -18 -80 -55.5t-49 -73.5q-1 -9 4 -13t16 -4q25 -2 40 -16t15 -37q0 -33 -29.5 -62.5t-64.5 -29.5zM596 723h-2q-35 0 -54.5 31.5t-19.5 70.5 q0 122 135 205q51 35 86 35t35 -18q0 -16 -41 -39q-35 -14 -73 -49t-48 -64q-11 -24 19 -27q21 -2 36 -16t15 -35q0 -31 -28 -62.5t-60 -31.5z" />
<glyph unicode="&#x201d;" horiz-adv-x="497" d="M451 1063h2q33 0 52 -30.5t19 -69.5q0 -130 -135 -213q-47 -33 -88 -33t-41 20q0 10 15.5 22t31.5 19q80 26 123 111q18 24 -8 24q-24 0 -43 15.5t-19 40.5q0 29 29.5 61.5t61.5 32.5zM694 1063h2q33 0 54.5 -34.5t21.5 -74.5q0 -49 -36.5 -103.5t-90.5 -88.5 q-73 -41 -96 -41q-10 0 -19.5 5t-9.5 13q0 17 31 33q35 20 81 63.5t46 69.5q0 15 -29 19q-47 6 -47 49q0 33 28 61.5t64 28.5z" />
<glyph unicode="&#x2020;" horiz-adv-x="880" d="M684 1006h2q23 0 49 -33q10 -12 12.5 -30.5t-8.5 -41.5q-30 -58 -84 -207q-6 -15 -3.5 -19.5t16.5 -4.5h262q25 0 34.5 -16.5t2.5 -35.5q-12 -31 -41 -53q-17 -10 -33 -6q-62 23 -254 23q-26 0 -35 -25q-15 -34 -83 -241t-89 -275q-16 -52 6 -70q17 -14 15 -45 q-7 -27 -35 -55q-11 -12 -40 -60t-32 -53q-25 -36 -47 -8q-26 30 -14 88q44 188 213 719q3 14 -1 19.5t-22 5.5h-131q-16 0 -38.5 -6.5t-26.5 -6.5q-18 -4 -37 15q-26 26 -23 53q5 15 26 26t48 11l223 -4q18 0 23 18q6 20 24.5 78.5t24.5 81.5q32 107 57 135q20 23 39 23z " />
<glyph unicode="&#x2021;" horiz-adv-x="907" d="M723 1004h2q17 0 27 -17q15 -23 2 -59q-3 -8 -21 -59t-34 -96.5t-21 -65.5q-7 -15 -3.5 -20t23.5 -5h236q21 0 32 -17.5t9 -35.5q0 -22 -32.5 -40t-51.5 -18q-8 0 -26 10.5t-31 12.5q-40 4 -154 4q-23 0 -31 -5t-14 -24q-43 -116 -96 -278q-9 -23 18 -23h193q86 0 106 -6 q20 -3 31.5 -16.5t11.5 -26.5q-3 -20 -27 -36.5t-41 -16.5q-48 7 -69 8q-98 8 -234 8q-23 0 -30 -18q-10 -25 -35.5 -111.5t-34.5 -124.5q-14 -68 -10 -116q3 -31 -30.5 -53.5t-53.5 -22.5q-26 0 -42.5 29.5t-4.5 62.5q97 297 106 328q9 21 -18 26q-18 4 -119 4 q-45 0 -63 -6q-31 -5 -60 21q-15 17 -11 33t21 30q41 33 72 23q74 -19 193 -19q22 0 30 19q22 52 92 286q5 13 1 19t-17 6q-147 3 -188 -8q-22 -7 -64 20q-37 21 -37 52q0 16 22.5 29.5t39.5 13.5q8 0 26 -3t45.5 -7.5t49.5 -6.5q49 -6 131 -6q15 0 22.5 6t13.5 25 q41 117 46 141q7 21 -3 41q-15 22 7 47q29 33 53 47q24 15 45 15z" />
<glyph unicode="&#x2022;" horiz-adv-x="423" d="M354 526h2q42 0 80.5 -40.5t38.5 -77.5q0 -46 -55.5 -92t-118.5 -46q-28 0 -59 29t-31 63q0 47 47.5 105.5t95.5 58.5z" />
<glyph unicode="&#x2026;" horiz-adv-x="1452" d="M653 -23h-2q-21 0 -41 22t-20 50q0 33 34 73t70 40q30 0 57 -31t27 -61q0 -36 -40.5 -64.5t-84.5 -28.5zM207 156h2q30 0 57 -25.5t27 -50.5q0 -34 -40.5 -68.5t-82.5 -34.5q-22 0 -41.5 22.5t-19.5 45.5q0 37 32.5 74t65.5 37zM1137 -23h-2q-20 0 -41 21t-21 43 q0 37 32.5 76t68.5 39q29 0 56 -27.5t27 -52.5q0 -37 -36.5 -68t-83.5 -31z" />
<glyph unicode="&#x202f;" horiz-adv-x="307" />
<glyph unicode="&#x205f;" horiz-adv-x="384" />
<glyph unicode="&#x2122;" horiz-adv-x="995" d="M408 623h-2q-22 0 -39 14q-8 7 0 35q9 12 24 12q6 0 15 31q2 10 18.5 63.5t19.5 67.5q6 16 -8 16q-53 0 -88 -28q-16 -13 -31 -13q-10 0 -15 8.5t-3 18.5q7 20 29 37q49 35 143 35q29 0 80 -2.5t59 -2.5q20 0 41 21q17 10 27 4q11 -3 22 -14q14 -14 5 -35 q-12 -28 -33 -45q-9 -9 -17.5 -8.5t-11.5 8.5q-12 16 -35 14q-36 4 -67 4q-15 0 -25 -20q-24 -64 -47 -144q-5 -16 6 -20q5 -2 35 -6q14 0 17.5 -7t-7.5 -16q-10 -9 -48.5 -18.5t-63.5 -9.5zM817 938h2q13 0 25 -12q16 -16 26 -64q5 -23 12 -59.5t11 -52.5q2 -6 6.5 -7 t7.5 5q101 108 117 124q18 18 23 31q2 11 16.5 24t26.5 13q26 0 40 -27q3 -17 -4 -34q-12 -17 -12 -31q0 -6 -4 -43.5t-6.5 -68t-1.5 -36.5q0 -21 20 -8q42 25 56 35q12 10 15 7.5t3 -15.5q-6 -23 -31 -41q-30 -30 -65 -51q-26 -17 -45 -17q-30 0 -23 60q3 12 5.5 37.5 t5.5 57t4 42.5q1 9 -2.5 10.5t-8.5 -6.5q-13 -13 -108 -127q-13 -13 -25 -37q-5 -9 -17.5 -17.5t-21.5 -8.5q-19 0 -24 49q-3 24 -13 77.5t-12 67.5q-1 5 -3 6.5t-5 -0.5t-6 -8q-19 -44 -39 -84q-14 -29 -19 -55q0 -18 -24 -35q-32 -23 -45 -23q-14 0 -23 17q-10 18 2 39 q4 8 20.5 25.5t20.5 23.5q8 10 35 70.5t37 85.5q3 29 14 43q14 18 37 18z" />
<glyph unicode="&#x25ca;" horiz-adv-x="833" d="M735 1034h2q25 0 31 -37q40 -328 115 -503q8 -28 6 -43q-3 -16 -18 -37.5t-33 -36.5q-34 -30 -201 -241t-199 -263q-17 -35 -47 -35q-33 0 -37 37q-39 319 -114 510q-7 10 -4 37q3 13 18 36.5t31 37.5q32 29 184 227.5t199 265.5q21 27 35 36t32 9zM694 866 q-3 8 -9.5 6.5t-10.5 -10.5q-44 -56 -134 -174.5t-137 -177.5q-40 -46 -53 -80q-9 -30 2 -84q80 -331 82 -336q25 24 67.5 76.5t119 152.5t94.5 123q45 63 49 82q4 12 5 26t0 21t-3.5 22.5t-3.5 18.5q-61 313 -68 334z" />
<glyph unicode="&#xe000;" horiz-adv-x="716" d="M0 717h717v-717h-717v717z" />
<glyph unicode="&#xfb01;" horiz-adv-x="864" d="M774 1206h2q38 0 66 -14q14 -6 26.5 -19t12.5 -30q0 -24 -19.5 -41t-40.5 -23q-19 -4 -51 4q-35 9 -59 9q-42 0 -96 -38t-99 -100q-41 -50 -81.5 -142t-59.5 -159q-3 -13 0 -16.5t18 -3.5q207 0 275 22q15 6 39 35q22 29 51 29q24 0 43.5 -19.5t23.5 -35.5 q10 -33 -10 -50q-40 -40 -86 -137q-13 -31 -49.5 -140.5t-40.5 -119.5q-19 -53 -22 -83t14 -32q24 0 78 23q30 16 79 48t140.5 105t169.5 152q10 12 19 12t11 -12q3 -24 -20 -59q-58 -86 -200.5 -200.5t-221.5 -147.5q-90 -41 -129 -41q-47 0 -70 38q-19 30 2 78 q26 55 39 99q5 15 20.5 59.5t45 128.5t59.5 172q4 11 -2.5 14.5t-21.5 -0.5q-60 -14 -271 -22q-18 0 -24 -21q-7 -26 -50 -177t-63 -228q-21 -74 -82.5 -266t-77.5 -230q-27 -64 -92 -174t-98 -149q-29 -37 -64 -37q-19 0 -47.5 36t-25.5 66q0 36 61 80q30 24 53 12 q12 -4 26.5 5t23.5 26q94 136 206 594q75 288 117 430q6 29 -14 29q-61 3 -72 10q-7 6 -8 14q0 23 41.5 42.5t71.5 21.5q12 2 20 22q60 173 127 276.5t164 174.5q132 100 223 100z" />
<glyph unicode="&#xfb02;" horiz-adv-x="874" d="M782 1204h2q74 0 107 -30q11 -11 27 8q22 40 53 12q49 -39 26 -80q-29 -60 -67 -143q-34 -71 -111.5 -279t-161.5 -473q-14 -46 -17 -61.5t3 -32.5q9 -12 29 -12q48 0 181.5 94.5t258.5 232.5q7 7 13.5 9.5t10.5 0t5 -9.5q4 -39 -33 -84q-140 -170 -299.5 -272 t-261.5 -102q-29 0 -45 26q-26 36 -6 72q21 38 49 129q14 43 121 354q5 14 1 18.5t-22 0.5q-38 -9 -140.5 -22t-133.5 -13q-25 0 -35 -27q-20 -57 -92 -309t-86 -297q-27 -87 -72.5 -242.5t-65.5 -212.5q-35 -95 -87 -140.5t-101 -45.5q-26 0 -63 28.5t-56 53.5 q-18 23 -49 39q-25 8 -31 39q-10 54 27 80q25 18 59 0q30 -13 68 -95q27 -55 57 -55q57 0 150 344q11 34 38.5 133.5t81.5 295.5t105 376q5 15 2.5 21t-14.5 6q-88 0 -88 28q0 26 43 56q19 13 37 10q14 -2 49 -2q15 0 24 26q100 279 252 424q56 54 131.5 88.5t126.5 34.5z M764 1116h-2q-46 0 -106 -40.5t-111 -106.5q-101 -130 -156 -314q-4 -16 -0.5 -19t17.5 -3q136 0 256 16q13 3 19.5 5t15 9t12.5 19q20 56 68.5 188.5t62.5 173.5q13 36 -11 60q-20 12 -65 12z" />
</font>
</defs>
</svg>
